<svg width="29" height="24" viewBox="0 0 29 24" fill="none" xmlns="http://www.w3.org/2000/svg">
<path d="M27.9643 0H1.03571C0.462835 0 0 0.4875 0 1.09091V22.9091C0 23.5125 0.462835 24 1.03571 24H27.9643C28.5372 24 29 23.5125 29 22.9091V1.09091C29 0.4875 28.5372 0 27.9643 0ZM26.6696 3.77727V21.5455H2.33036V3.77727L1.43705 3.04432L2.70904 1.32273L4.09431 2.45795H24.9089L26.2942 1.32273L27.5662 3.04432L26.6696 3.77727ZM24.9089 2.45455L14.5 10.9773L4.09107 2.45455L2.7058 1.31932L1.43382 3.04091L2.32712 3.77386L13.3834 12.8284C13.7013 13.0886 14.0925 13.2298 14.4951 13.2298C14.8978 13.2298 15.289 13.0886 15.6069 12.8284L26.6696 3.77727L27.5629 3.04432L26.291 1.32273L24.9089 2.45455Z" fill="black"/>
</svg>
