<svg width="29" height="28" viewBox="0 0 29 28" fill="none" xmlns="http://www.w3.org/2000/svg">
<path fill-rule="evenodd" clip-rule="evenodd" d="M8.52205 0.084C10.0683 0.0152727 10.5613 0 14.5 0C18.4387 0 18.9317 0.0165454 20.4766 0.084C22.0215 0.151455 23.0761 0.389455 23.9988 0.734364C24.965 1.08691 25.8416 1.638 26.5666 2.35073C27.3048 3.04945 27.8743 3.89455 28.2381 4.82873C28.5966 5.71964 28.8418 6.73782 28.913 8.22691C28.9842 9.72236 29 10.1984 29 14C29 17.8029 28.9829 18.2789 28.913 19.7718C28.8431 21.2609 28.5966 22.2791 28.2381 23.17C27.8743 24.1043 27.3039 24.9508 26.5666 25.6505C25.8416 26.3633 24.965 26.9131 23.9988 27.2644C23.0761 27.6105 22.0215 27.8473 20.4793 27.916C18.9317 27.9847 18.4387 28 14.5 28C10.5613 28 10.0683 27.9835 8.52205 27.916C6.97977 27.8485 5.92523 27.6105 5.0025 27.2644C4.03485 26.913 3.15813 26.3623 2.43336 25.6505C1.69568 24.9514 1.12482 24.1053 0.760591 23.1713C0.403364 22.2804 0.158182 21.2622 0.087 19.7731C0.0158182 18.2776 0 17.8016 0 14C0 10.1971 0.0171363 9.72109 0.087 8.22945C0.156864 6.73782 0.403364 5.71964 0.760591 4.82873C1.12536 3.89465 1.69666 3.04858 2.43468 2.34945C3.15842 1.63737 4.03426 1.0862 5.00118 0.734364C5.92391 0.389455 6.97846 0.152727 8.52073 0.084H8.52205ZM20.3593 2.604C18.8302 2.53655 18.3715 2.52255 14.5 2.52255C10.6285 2.52255 10.1698 2.53655 8.64068 2.604C7.22627 2.66636 6.45909 2.89418 5.94764 3.08636C5.27141 3.34091 4.78764 3.64255 4.28014 4.13255C3.79906 4.58443 3.42883 5.13454 3.19659 5.74255C2.99755 6.23636 2.76159 6.97709 2.697 8.34273C2.62714 9.81909 2.61264 10.262 2.61264 14C2.61264 17.738 2.62714 18.1809 2.697 19.6573C2.76159 21.0229 2.99755 21.7636 3.19659 22.2575C3.42859 22.8645 3.799 23.4156 4.28014 23.8675C4.74809 24.332 5.31886 24.6896 5.94764 24.9136C6.45909 25.1058 7.22627 25.3336 8.64068 25.396C10.1698 25.4635 10.6272 25.4775 14.5 25.4775C18.3728 25.4775 18.8302 25.4635 20.3593 25.396C21.7737 25.3336 22.5409 25.1058 23.0524 24.9136C23.7286 24.6591 24.2124 24.3575 24.7199 23.8675C25.201 23.4156 25.5714 22.8645 25.8034 22.2575C26.0025 21.7636 26.2384 21.0229 26.303 19.6573C26.3729 18.1809 26.3874 17.738 26.3874 14C26.3874 10.262 26.3729 9.81909 26.303 8.34273C26.2384 6.97709 26.0025 6.23636 25.8034 5.74255C25.5398 5.08964 25.2274 4.62255 24.7199 4.13255C24.2518 3.66809 23.6821 3.31063 23.0524 3.08636C22.5409 2.89418 21.7737 2.66636 20.3593 2.604ZM12.648 18.3158C13.6823 18.7315 14.834 18.7876 15.9064 18.4746C16.9788 18.1615 17.9054 17.4986 18.5278 16.5992C19.1503 15.6998 19.4301 14.6197 19.3193 13.5432C19.2086 12.4668 18.7142 11.4609 17.9207 10.6973C17.4148 10.2092 16.8031 9.8354 16.1297 9.60291C15.4563 9.37043 14.7378 9.285 14.0261 9.35278C13.3144 9.42056 12.6271 9.63986 12.0137 9.99489C11.4002 10.3499 10.876 10.8319 10.4786 11.406C10.0813 11.9801 9.8207 12.6322 9.71568 13.3152C9.61066 13.9983 9.66379 14.6953 9.87126 15.3561C10.0787 16.0169 10.4354 16.6251 10.9155 17.1369C11.3956 17.6487 11.9873 18.0513 12.648 18.3158ZM9.22991 8.91164C9.92199 8.24342 10.7436 7.71337 11.6478 7.35173C12.5521 6.9901 13.5213 6.80397 14.5 6.80397C15.4787 6.80397 16.4479 6.9901 17.3522 7.35173C18.2564 7.71337 19.078 8.24342 19.7701 8.91164C20.4622 9.57985 21.0112 10.3731 21.3857 11.2462C21.7603 12.1193 21.953 13.055 21.953 14C21.953 14.945 21.7603 15.8807 21.3857 16.7538C21.0112 17.6269 20.4622 18.4202 19.7701 19.0884C18.3724 20.4379 16.4767 21.196 14.5 21.196C12.5233 21.196 10.6276 20.4379 9.22991 19.0884C7.83219 17.7388 7.04697 15.9085 7.04697 14C7.04697 12.0915 7.83219 10.2612 9.22991 8.91164ZM23.606 7.87564C23.7775 7.71943 23.9148 7.53159 24.0098 7.32324C24.1047 7.11489 24.1554 6.89025 24.1589 6.66264C24.1623 6.43503 24.1184 6.20906 24.0298 5.99812C23.9411 5.78718 23.8096 5.59556 23.6429 5.4346C23.4761 5.27363 23.2777 5.1466 23.0592 5.06102C22.8407 4.97544 22.6067 4.93306 22.371 4.93638C22.1352 4.9397 21.9026 4.98865 21.6868 5.08034C21.471 5.17203 21.2764 5.30459 21.1146 5.47018C20.8 5.79222 20.6277 6.21997 20.6344 6.66264C20.6411 7.1053 20.8262 7.52803 21.1504 7.84107C21.4747 8.15412 21.9125 8.33284 22.371 8.33929C22.8294 8.34574 23.2725 8.17942 23.606 7.87564Z" fill="black"/>
</svg>
