<svg width="253" height="92" viewBox="0 0 253 92" fill="none" xmlns="http://www.w3.org/2000/svg">
    <g clip-path="url(#clip0_16_283)">
    <path fill-rule="evenodd" clip-rule="evenodd" d="M30.7803 63.4411C29.6518 56.6373 27.5108 49.8206 24.5701 43.6012C22.184 38.5438 19.1982 34.0772 15.1935 30.1819C14.381 29.3964 10.3569 25.1765 13.7167 26.1243C15.9867 26.7671 17.2765 29.0198 19.4755 29.7794C23.6737 31.2336 25.6857 27.1371 24.8925 23.4366C24.5121 21.6642 22.6032 17.5223 24.4734 15.9771C26.1049 14.6333 28.4523 18.9635 28.9424 19.9049C29.8968 21.7551 30.8319 28.4355 34.1273 25.1245C35.3461 23.904 36.0232 22.2096 37.3775 21.1059C38.7382 20.0023 39.5249 22.2355 39.5636 23.2094C39.641 25.0596 38.9703 27.0527 38.5189 28.8251C38.2609 29.8378 39.8216 30.2079 40.0731 29.2016C40.6277 27.0073 42.9299 19.009 38.0546 19.2167C36.6874 19.2751 35.7846 20.3139 34.9849 21.3266C34.4432 22.0148 33.966 22.7484 33.4372 23.4431C32.2249 25.0466 31.9347 23.508 31.5348 22.1576C30.7481 19.5218 28.2846 13.5166 24.5508 14.2437C20.746 14.9838 22.5323 20.8397 23.1965 23.1379C23.6673 24.774 23.7447 27.1501 22.2163 28.2667C20.6428 29.4223 18.3986 27.3124 17.341 26.371C16.1802 25.3323 14.6389 24.5532 13.0977 24.3455C9.37024 23.8326 11.0082 27.7474 12.2787 29.3704C14.1295 31.727 16.4704 33.6163 18.289 36.0248C20.114 38.4399 21.5843 41.1212 22.9063 43.8414C25.1763 48.5027 26.7949 53.5081 28.0718 58.5266C28.4329 59.9548 29.0069 62.5841 29.1617 63.4995C29.3293 64.5123 30.9351 64.4669 30.761 63.4411" fill="black"/>
    <path d="M60.7543 54.1833H53.6541V59.1563H60.1803V62.8568H53.6541V70.7253H49.1206V50.4698H60.7543V54.1833Z" fill="black"/>
    <path d="M79.8042 61.9544C79.8042 68.0375 76.9861 71.0759 71.3627 71.0759C65.7393 71.0759 63.1663 68.1025 63.1663 62.1622V50.4633H67.7127V62.2141C67.7127 65.4926 68.9895 67.1351 71.5304 67.1351C74.0712 67.1351 75.2771 65.5511 75.2771 62.3829V50.4633H79.8107V61.9479L79.8042 61.9544Z" fill="black"/>
    <path d="M94.4172 70.7253H82.345V50.4698H93.9528V54.1833H86.8785V58.6889H93.4627V62.3894H86.8785V67.0248H94.4172V70.7253Z" fill="black"/>
    <path d="M102.175 53.8912V59.5264H104.135C105.109 59.5264 105.89 59.2407 106.476 58.6759C107.076 58.1046 107.379 57.3905 107.379 56.5465C107.379 54.7741 106.328 53.8912 104.219 53.8912H102.175ZM114.525 70.7318H109.32L106.193 65.5186C105.96 65.1226 105.735 64.772 105.516 64.4604C105.303 64.1488 105.083 63.8891 104.864 63.6619C104.645 63.4411 104.413 63.2723 104.174 63.149C103.936 63.0321 103.678 62.9737 103.4 62.9737H102.181V70.7253H97.6479V50.4698H104.832C109.72 50.4698 112.158 52.3071 112.158 55.9752C112.158 56.6828 112.048 57.332 111.829 57.9358C111.616 58.5331 111.313 59.0719 110.92 59.5588C110.526 60.0393 110.055 60.4483 109.494 60.7988C108.933 61.1494 108.314 61.4221 107.631 61.6168V61.6753C107.934 61.7727 108.218 61.922 108.501 62.1362C108.785 62.3504 109.049 62.5972 109.314 62.8763C109.578 63.162 109.823 63.4671 110.068 63.7852C110.307 64.1098 110.526 64.4279 110.72 64.7396L114.525 70.7253V70.7318Z" fill="black"/>
    <path d="M131.549 70.7253H115.344V68.096L125.655 54.1833H116.085V50.4698H131.524V53.0278L121.438 67.0248H131.549V70.7253Z" fill="black"/>
    <path d="M144.802 62.7205L142.641 55.9102C142.48 55.3974 142.371 54.7936 142.3 54.0859H142.19C142.145 54.6767 142.029 55.2675 141.842 55.8518L139.656 62.7205H144.802ZM152.211 70.7318H147.272L145.84 66.2262H138.682L137.263 70.7318H132.349L139.675 50.4763H145.047L152.205 70.7318H152.211Z" fill="black"/>
    <path d="M166.844 62.7205L164.683 55.9102C164.522 55.3974 164.413 54.7936 164.342 54.0859H164.232C164.187 54.6767 164.071 55.2675 163.884 55.8518L161.698 62.7205H166.844ZM174.253 70.7318H169.314L167.882 66.2262H160.724L159.305 70.7318H154.391L161.717 50.4763H167.089L174.247 70.7318H174.253Z" fill="black"/>
    <path d="M189.357 70.0111C187.893 70.7253 185.971 71.0823 183.604 71.0823C180.522 71.0823 178.091 70.1734 176.324 68.3427C174.55 66.5184 173.673 64.0773 173.673 61.039C173.673 57.7994 174.666 55.1701 176.652 53.1576C178.639 51.145 181.225 50.1322 184.391 50.1322C186.358 50.1322 188.015 50.3854 189.357 50.8853V55.2805C188.009 54.469 186.48 54.0665 184.752 54.0665C182.863 54.0665 181.334 54.6637 180.18 55.8583C179.019 57.0528 178.439 58.6759 178.439 60.7209C178.439 62.7659 178.987 64.2396 180.083 65.4017C181.173 66.5638 182.65 67.1481 184.507 67.1481C186.364 67.1481 187.893 66.7131 189.357 65.8432V70.0111Z" fill="black"/>
    <path d="M206.994 54.1833H201.255V70.7253H196.708V54.1833H190.995V50.4698H206.994V54.1833Z" fill="black"/>
    <path d="M215.919 50.4698V54.0016H214.236V67.2001H215.919V70.7253H208.02V67.2001H209.703V54.0016H208.02V50.4698H215.919Z" fill="black"/>
    <path d="M235.562 50.4698L228.63 70.7253H223.497L216.648 50.4698H221.536L225.734 64.5708C225.96 65.3303 226.095 66.0055 226.141 66.5898H226.224C226.289 65.9601 226.437 65.2654 226.663 64.5123L230.829 50.4698H235.575H235.562Z" fill="black"/>
    <path d="M245.59 62.7205L243.43 55.9102C243.269 55.3974 243.159 54.7936 243.088 54.0859H242.979C242.933 54.6767 242.817 55.2675 242.63 55.8518L240.444 62.7205H245.59ZM253 70.7318H248.06L246.629 66.2262H239.47L238.052 70.7318H233.138L240.464 50.4763H245.835L252.994 70.7318H253Z" fill="black"/>
    <path d="M27.5622 72.6859C31.6443 72.8482 35.8876 72.1665 37.2032 71.381C37.1065 71.3031 36.9775 71.2057 36.8098 71.0953C35.3911 70.1605 31.2445 71.0109 27.5622 72.6924M25.6727 81.6321C30.2772 82.95 35.9263 81.8138 37.8674 80.8011C37.6804 80.7297 37.4418 80.6453 37.1516 80.5674C33.4307 79.5156 28.6392 80.2298 25.6727 81.6386V81.6321ZM26.5046 92.013C26.208 92.026 25.9113 91.9481 25.634 91.7923C19.398 88.0853 19.1852 84.7223 20.1074 82.5604C20.1267 82.515 20.1461 82.4696 20.1719 82.4241C17.7213 80.418 17.3215 77.6978 19.1143 75.0815C19.2948 74.8153 19.5077 74.5427 19.7398 74.2765C17.8181 73.2442 17.2828 71.9198 17.2441 70.8227C17.0313 64.5902 26.4917 63.4281 32.7471 62.6556C34.3786 62.4543 35.9199 62.266 36.6228 62.0518C37.2548 61.857 37.416 61.6817 37.2484 58.7343C37.1387 56.7997 36.9904 54.1444 37.6675 51.0282C38.5123 47.1394 40.8017 44.6074 43.2135 41.9197C46.3541 38.4334 49.6043 34.8303 50.1847 27.5007C50.8102 19.6777 48.8111 13.244 44.4194 8.90072C40.0665 4.59644 33.4693 2.6488 25.8468 3.40838C10.1246 4.9535 3.86283 15.3344 3.28243 23.7482C2.41184 36.33 8.9058 41.2056 13.6521 44.7633L14.2261 45.1982C20.1332 49.6648 23.0158 56.8062 23.5124 60.5197C23.6285 61.4026 23.0158 62.2141 22.1388 62.331C21.2553 62.4478 20.4556 61.8311 20.3396 60.9481C19.9268 57.8968 17.386 51.6189 12.2979 47.7756L11.7368 47.3471C7.0034 43.8024 -0.9093 37.8621 0.0838181 23.521C0.754495 13.8542 7.8224 1.94765 25.5373 0.175296C34.1207 -0.681665 41.6207 1.59058 46.6701 6.57654C51.7646 11.6144 54.0927 18.9311 53.3897 27.7344C52.7191 36.1612 48.9336 40.3616 45.5931 44.0621C43.3812 46.5226 41.4659 48.6455 40.8017 51.6904C40.2148 54.3781 40.3438 56.6763 40.447 58.5266C40.6017 61.2792 40.763 64.1228 37.5579 65.1096C36.5841 65.4082 35.0622 65.5965 33.134 65.8302C28.6585 66.382 20.3331 67.4078 20.4427 70.6863C20.4492 70.9006 20.9522 71.4005 22.2677 71.8419C22.3258 71.8614 22.3838 71.8809 22.4483 71.9004C27.3559 68.479 35.217 66.1678 38.5768 68.3946C40.9629 69.9722 40.7823 71.5758 40.4599 72.3873C39.0282 76.0423 28.665 76.3669 23.7445 75.51C23.5317 75.471 23.3318 75.4386 23.1319 75.3931C22.5708 75.8735 22.1001 76.3734 21.7583 76.8798C21.0489 77.9186 20.8684 78.8405 22.2484 79.9311C25.9887 77.0486 33.1082 76.0423 38.0287 77.4381C38.8412 77.6719 41.324 78.373 41.5884 80.3661C41.698 81.1776 41.4594 82.3722 39.7054 83.4304C36.668 85.2612 28.7553 86.5077 22.9836 84.0536C22.5386 85.9364 25.8017 88.1177 27.2785 88.9941C28.0394 89.4486 28.2909 90.4354 27.846 91.2015C27.5558 91.6949 27.0463 91.974 26.5175 91.9935L26.5046 92.013Z" fill="black"/>
    <path d="M70.3437 84.8262L68.9378 80.9829C68.8927 80.853 68.8476 80.6518 68.8024 80.3791H68.7766C68.7379 80.6323 68.6863 80.8335 68.6347 80.9829L67.2418 84.8262H70.3501H70.3437ZM72.8007 88.306H71.6399L70.6919 85.774H66.8871L65.9907 88.306H64.8235L68.2607 79.2819H69.3506L72.8007 88.306Z" fill="black"/>
    <path d="M73.5939 88.0723V86.9621C74.1485 87.3776 74.7675 87.5854 75.4382 87.5854C76.341 87.5854 76.7925 87.2802 76.7925 86.6765C76.7925 86.5077 76.7538 86.3583 76.6764 86.2415C76.599 86.1181 76.4958 86.0143 76.3604 85.9234C76.2314 85.8325 76.0766 85.7481 75.8961 85.6767C75.722 85.6053 75.5285 85.5273 75.3221 85.4494C75.0384 85.3326 74.7933 85.2222 74.5741 85.1054C74.3613 84.9885 74.1807 84.8587 74.0388 84.7158C73.8969 84.5665 73.7873 84.4042 73.7164 84.2224C73.6454 84.0406 73.6067 83.8199 73.6067 83.5732C73.6067 83.2681 73.6777 83.0019 73.8131 82.7682C73.955 82.5345 74.1355 82.3397 74.3613 82.1839C74.5934 82.0281 74.8514 81.9047 75.148 81.8268C75.4382 81.7489 75.7478 81.71 76.0573 81.71C76.6119 81.71 77.1085 81.8074 77.547 81.9956V83.0409C77.0762 82.7292 76.5345 82.5734 75.9219 82.5734C75.7284 82.5734 75.5543 82.5929 75.3995 82.6384C75.2447 82.6838 75.1158 82.7422 74.9997 82.8201C74.8901 82.898 74.8062 82.9954 74.7417 83.1058C74.6837 83.2161 74.6515 83.3395 74.6515 83.4758C74.6515 83.6446 74.6837 83.781 74.7417 83.8978C74.8062 84.0147 74.8901 84.1121 75.0061 84.203C75.1222 84.2938 75.2641 84.3718 75.4318 84.4432C75.5994 84.5146 75.7864 84.5925 75.9993 84.6769C76.283 84.7872 76.5345 84.8976 76.7602 85.0145C76.9859 85.1313 77.1794 85.2612 77.3342 85.404C77.4889 85.5468 77.6115 85.7156 77.7017 85.9039C77.7856 86.0922 77.8307 86.3194 77.8307 86.5791C77.8307 86.8972 77.7598 87.1764 77.6244 87.4101C77.4825 87.6438 77.2955 87.8385 77.0633 87.9944C76.8312 88.1502 76.5603 88.267 76.2572 88.3449C75.9541 88.4228 75.6317 88.4553 75.2963 88.4553C74.6386 88.4553 74.0646 88.3255 73.5874 88.0723" fill="black"/>
    <path d="M82.1645 82.5734C81.5067 82.5734 80.9843 82.8007 80.6039 83.2486C80.2169 83.6966 80.0299 84.3198 80.0299 85.1183C80.0299 85.9169 80.2234 86.4817 80.6103 86.9232C80.9972 87.3646 81.5196 87.5854 82.1645 87.5854C82.8094 87.5854 83.3382 87.3711 83.6928 86.9361C84.0475 86.5012 84.2281 85.8909 84.2281 85.0924C84.2281 84.2938 84.054 83.6641 83.6928 83.2291C83.3382 82.7877 82.8287 82.5734 82.1645 82.5734ZM82.0871 88.4553C81.1391 88.4553 80.3846 88.1567 79.8236 87.5529C79.2625 86.9491 78.9788 86.1506 78.9788 85.1573C78.9788 84.0731 79.2754 83.2291 79.8622 82.6189C80.4491 82.0086 81.2423 81.71 82.2483 81.71C83.2543 81.71 83.9443 82.0021 84.4796 82.5994C85.0149 83.1902 85.2793 84.0082 85.2793 85.0599C85.2793 86.1116 84.9891 86.9102 84.4151 87.5334C83.8347 88.1502 83.0609 88.4618 82.0935 88.4618L82.0871 88.4553Z" fill="black"/>
    <path d="M91.283 88.0073C90.7929 88.306 90.2061 88.4553 89.5354 88.4553C88.6197 88.4553 87.8845 88.1567 87.3235 87.5594C86.7624 86.9621 86.4851 86.1895 86.4851 85.2352C86.4851 84.1705 86.7882 83.32 87.3944 82.6773C88.0006 82.0346 88.8067 81.71 89.8127 81.71C90.3737 81.71 90.8703 81.8138 91.3024 82.0216V83.0798C90.8252 82.7422 90.3157 82.5799 89.774 82.5799C89.1227 82.5799 88.581 82.8136 88.1618 83.2876C87.7426 83.755 87.5298 84.3782 87.5298 85.1443C87.5298 85.9104 87.7297 86.4947 88.1231 86.9296C88.5165 87.3646 89.0453 87.5854 89.7095 87.5854C90.2706 87.5854 90.7929 87.3971 91.283 87.027V88.0073Z" fill="black"/>
    <path d="M93.8561 88.306H92.8307V81.8593H93.8561V88.306ZM93.3531 80.2233C93.1725 80.2233 93.0113 80.1584 92.8888 80.035C92.7598 79.9116 92.6953 79.7493 92.6953 79.5611C92.6953 79.3728 92.7598 79.204 92.8888 79.0807C93.0177 78.9508 93.1725 78.8859 93.3531 78.8859C93.5337 78.8859 93.7013 78.9508 93.8303 79.0807C93.9593 79.2105 94.0238 79.3663 94.0238 79.5611C94.0238 79.7558 93.9593 79.9052 93.8303 80.0285C93.6949 80.1583 93.5401 80.2233 93.3531 80.2233Z" fill="black"/>
    <path d="M99.4924 85.0404L97.9512 85.2547C97.4739 85.3196 97.1193 85.4365 96.8742 85.6117C96.6356 85.7805 96.5131 86.0792 96.5131 86.5142C96.5131 86.8258 96.6227 87.0855 96.8484 87.2867C97.0677 87.488 97.3643 87.5854 97.7383 87.5854C98.2478 87.5854 98.667 87.4036 98.9959 87.0465C99.3312 86.6894 99.4924 86.235 99.4924 85.6832V85.0404ZM100.518 88.2995H99.4924V87.2932H99.4666C99.0217 88.0658 98.3639 88.4488 97.4997 88.4488C96.8613 88.4488 96.3647 88.28 96.0036 87.9424C95.6425 87.6048 95.4619 87.1504 95.4619 86.5856C95.4619 85.3845 96.1648 84.6769 97.5771 84.4821L99.4989 84.2095C99.4989 83.1123 99.0604 82.5669 98.1769 82.5669C97.4095 82.5669 96.713 82.8331 96.0875 83.359V82.3008C96.7194 81.8982 97.4417 81.697 98.2607 81.697C99.7633 81.697 100.518 82.4955 100.518 84.0991V88.293V88.2995Z" fill="black"/>
    <path d="M106.812 88.0073C106.322 88.306 105.735 88.4553 105.064 88.4553C104.148 88.4553 103.413 88.1567 102.852 87.5594C102.291 86.9621 102.014 86.1895 102.014 85.2352C102.014 84.1705 102.317 83.32 102.923 82.6773C103.529 82.0346 104.335 81.71 105.342 81.71C105.903 81.71 106.399 81.8138 106.831 82.0216V83.0798C106.354 82.7422 105.845 82.5799 105.303 82.5799C104.651 82.5799 104.11 82.8136 103.691 83.2876C103.271 83.755 103.059 84.3782 103.059 85.1443C103.059 85.9104 103.259 86.4947 103.652 86.9296C104.045 87.3646 104.574 87.5854 105.238 87.5854C105.799 87.5854 106.322 87.3971 106.812 87.027V88.0073Z" fill="black"/>
    <path d="M109.391 88.306H108.366V81.8593H109.391V88.306ZM108.888 80.2233C108.708 80.2233 108.546 80.1584 108.424 80.035C108.295 79.9116 108.23 79.7493 108.23 79.5611C108.23 79.3728 108.295 79.204 108.424 79.0807C108.553 78.9508 108.708 78.8859 108.888 78.8859C109.069 78.8859 109.236 78.9508 109.365 79.0807C109.494 79.2105 109.559 79.3663 109.559 79.5611C109.559 79.7558 109.494 79.9052 109.365 80.0285C109.23 80.1583 109.075 80.2233 108.888 80.2233Z" fill="black"/>
    <path d="M115.718 78.5743L114.08 80.6388H113.286L114.679 78.5743H115.718ZM114.221 82.5799C113.564 82.5799 113.041 82.8072 112.661 83.2551C112.274 83.7031 112.087 84.3263 112.087 85.1248C112.087 85.9234 112.28 86.4882 112.667 86.9297C113.054 87.3711 113.577 87.5919 114.221 87.5919C114.866 87.5919 115.395 87.3776 115.75 86.9426C116.105 86.5077 116.285 85.8974 116.285 85.0989C116.285 84.3003 116.111 83.6706 115.75 83.2356C115.395 82.7942 114.886 82.5799 114.221 82.5799ZM114.144 88.4618C113.196 88.4618 112.442 88.1632 111.874 87.5594C111.313 86.9556 111.029 86.1571 111.029 85.1638C111.029 84.0796 111.326 83.2356 111.913 82.6254C112.5 82.0151 113.293 81.7165 114.299 81.7165C115.305 81.7165 115.995 82.0086 116.537 82.6059C117.072 83.1967 117.336 84.0147 117.336 85.0664C117.336 86.1181 117.046 86.9167 116.472 87.5399C115.892 88.1567 115.118 88.4683 114.151 88.4683L114.144 88.4618Z" fill="black"/>
    <path d="M124.288 88.306H123.263V84.6314C123.263 83.2616 122.766 82.5799 121.773 82.5799C121.263 82.5799 120.838 82.7747 120.502 83.1642C120.167 83.5537 119.999 84.0407 119.999 84.6314V88.306H118.974V81.8593H119.999V82.9305H120.025C120.509 82.119 121.205 81.71 122.128 81.71C122.831 81.71 123.366 81.9372 123.733 82.3917C124.107 82.8461 124.288 83.5018 124.288 84.3653V88.306Z" fill="black"/>
    <path d="M135.967 87.9294C135.303 88.28 134.477 88.4553 133.49 88.4553C132.214 88.4553 131.195 88.0398 130.427 87.2153C129.66 86.3908 129.273 85.3001 129.273 83.9627C129.273 82.5215 129.705 81.3529 130.569 80.4635C131.433 79.5741 132.53 79.1261 133.852 79.1261C134.703 79.1261 135.406 79.2494 135.967 79.4961V80.6258C135.322 80.2622 134.613 80.0869 133.839 80.0869C132.807 80.0869 131.975 80.431 131.337 81.1257C130.698 81.8203 130.376 82.7422 130.376 83.9043C130.376 85.0664 130.672 85.8779 131.272 86.5336C131.872 87.1893 132.652 87.5139 133.626 87.5139C134.522 87.5139 135.303 87.3127 135.96 86.9102V87.9359L135.967 87.9294Z" fill="black"/>
    <path d="M138.682 88.306H137.656V81.8593H138.682V88.306ZM138.179 80.2233C137.998 80.2233 137.837 80.1584 137.714 80.035C137.585 79.9116 137.521 79.7493 137.521 79.5611C137.521 79.3728 137.585 79.204 137.714 79.0807C137.843 78.9508 137.998 78.8859 138.179 78.8859C138.359 78.8859 138.527 78.9508 138.656 79.0807C138.785 79.2105 138.849 79.3663 138.849 79.5611C138.849 79.7558 138.785 79.9052 138.656 80.0285C138.521 80.1583 138.366 80.2233 138.179 80.2233Z" fill="black"/>
    <path d="M145.788 81.8593L143.235 88.306H142.229L139.804 81.8593H140.926L142.551 86.5466C142.674 86.8907 142.745 87.1893 142.777 87.449H142.803C142.848 87.1244 142.912 86.8323 143.003 86.5726L144.705 81.8658H145.788V81.8593Z" fill="black"/>
    <path d="M147.916 88.306H146.891V81.8593H147.916V88.306ZM147.413 80.2233C147.233 80.2233 147.072 80.1584 146.949 80.035C146.82 79.9116 146.756 79.7493 146.756 79.5611C146.756 79.3728 146.82 79.204 146.949 79.0807C147.078 78.9508 147.233 78.8859 147.413 78.8859C147.594 78.8859 147.762 78.9508 147.891 79.0807C148.02 79.2105 148.084 79.3663 148.084 79.5611C148.084 79.7558 148.02 79.9052 147.891 80.0285C147.755 80.1583 147.6 80.2233 147.413 80.2233Z" fill="black"/>
    <path d="M151.018 78.7625H149.993V88.306H151.018V78.7625Z" fill="black"/>
    <path d="M163.968 88.306H162.678L158.06 81.1127C157.944 80.9309 157.848 80.7426 157.77 80.5479H157.732C157.764 80.7426 157.783 81.1517 157.783 81.7879V88.306H156.732V79.2819H158.093L162.581 86.3648C162.768 86.657 162.891 86.8582 162.942 86.9686H162.968C162.923 86.7089 162.903 86.2675 162.903 85.6377V79.2819H163.955V88.306H163.968Z" fill="black"/>
    <path d="M167.553 79.9117C167.282 79.9117 167.05 80.009 166.857 80.2038C166.663 80.3921 166.566 80.6323 166.566 80.905C166.566 81.1776 166.663 81.4243 166.85 81.6256C167.037 81.8268 167.269 81.9242 167.54 81.9242C167.811 81.9242 168.043 81.8203 168.243 81.6256C168.437 81.4243 168.54 81.1841 168.54 80.905C168.54 80.6258 168.443 80.3921 168.25 80.2038C168.056 80.0155 167.824 79.9181 167.553 79.9181M167.553 82.6643C167.076 82.6643 166.663 82.4955 166.328 82.1514C165.992 81.8074 165.818 81.3984 165.818 80.9114C165.818 80.4245 165.986 80.022 166.321 79.6844C166.657 79.3533 167.063 79.1845 167.54 79.1845C168.017 79.1845 168.437 79.3533 168.778 79.6844C169.12 80.022 169.288 80.431 169.288 80.905C169.288 81.3789 169.12 81.8074 168.778 82.145C168.443 82.489 168.03 82.6578 167.553 82.6578V82.6643Z" fill="black"/>
    <path d="M179.483 88.306H174.079V87.3841L176.691 84.7483C177.355 84.0731 177.833 83.5148 178.116 83.0733C178.4 82.6254 178.548 82.1514 178.548 81.6386C178.548 81.1257 178.4 80.7167 178.103 80.431C177.807 80.1454 177.388 80.0025 176.839 80.0025C176.04 80.0025 175.272 80.3466 174.537 81.0348V79.9506C175.24 79.3988 176.053 79.1261 176.981 79.1261C177.781 79.1261 178.406 79.3468 178.871 79.7818C179.329 80.2168 179.561 80.8076 179.561 81.5412C179.561 82.119 179.4 82.6838 179.084 83.2356C178.768 83.7875 178.2 84.4756 177.375 85.2936L175.305 87.3516V87.3776H179.477V88.3125L179.483 88.306Z" fill="black"/>
    <path d="M186.384 88.306H180.979V87.3841L183.591 84.7483C184.255 84.0731 184.733 83.5148 185.016 83.0733C185.3 82.6254 185.449 82.1514 185.449 81.6386C185.449 81.1257 185.3 80.7167 185.004 80.431C184.707 80.1454 184.288 80.0025 183.74 80.0025C182.94 80.0025 182.173 80.3466 181.437 81.0348V79.9506C182.14 79.3988 182.953 79.1261 183.881 79.1261C184.681 79.1261 185.307 79.3468 185.771 79.7818C186.229 80.2168 186.461 80.8076 186.461 81.5412C186.461 82.119 186.3 82.6838 185.984 83.2356C185.668 83.7875 185.1 84.4756 184.275 85.2936L182.205 87.3516V87.3776H186.377V88.3125L186.384 88.306Z" fill="black"/>
    <path d="M188.105 87.9684V86.8517C188.718 87.3386 189.408 87.5854 190.182 87.5854C190.808 87.5854 191.304 87.4295 191.678 87.1114C192.052 86.7998 192.239 86.3713 192.239 85.839C192.239 84.6639 191.407 84.0731 189.743 84.0731H189.002V83.1967H189.711C191.188 83.1967 191.93 82.6448 191.93 81.5347C191.93 80.5089 191.362 79.9961 190.234 79.9961C189.602 79.9961 189.008 80.2103 188.454 80.6453V79.639C189.028 79.2949 189.711 79.1196 190.492 79.1196C191.272 79.1196 191.846 79.3209 192.304 79.7234C192.755 80.1259 192.981 80.6388 192.981 81.2685C192.981 82.4566 192.381 83.2226 191.182 83.5602V83.5862C191.826 83.6511 192.342 83.8783 192.723 84.2679C193.103 84.6639 193.297 85.1508 193.297 85.7351C193.297 86.5466 193.007 87.2023 192.433 87.6957C191.852 88.1956 191.091 88.4423 190.15 88.4423C189.298 88.4423 188.621 88.28 188.118 87.9619" fill="black"/>
    <path d="M197.579 84.0601C196.437 84.5146 195.863 85.1833 195.863 86.0467C195.863 86.4947 196.031 86.8647 196.36 87.1504C196.689 87.436 197.127 87.5854 197.669 87.5854C198.211 87.5854 198.611 87.4425 198.933 87.1569C199.262 86.8712 199.423 86.5142 199.423 86.0857C199.423 85.1768 198.804 84.5016 197.572 84.0601M199.126 81.3399C199.126 80.9244 198.997 80.5933 198.74 80.3596C198.482 80.1194 198.127 80.0025 197.682 80.0025C197.263 80.0025 196.915 80.1259 196.624 80.3791C196.334 80.6258 196.192 80.9439 196.192 81.3334C196.192 82.119 196.676 82.7098 197.65 83.1058C198.636 82.6968 199.133 82.106 199.133 81.3464L199.126 81.3399ZM196.747 83.5667V83.5407C195.67 83.0409 195.135 82.3072 195.135 81.3529C195.135 80.7037 195.38 80.1648 195.87 79.7493C196.36 79.3338 196.992 79.1196 197.772 79.1196C198.475 79.1196 199.049 79.3144 199.494 79.7039C199.945 80.0934 200.171 80.5933 200.171 81.2101C200.171 82.2099 199.617 82.9824 198.507 83.5407V83.5667C199.816 84.0342 200.468 84.8522 200.468 86.0078C200.468 86.7544 200.203 87.3516 199.668 87.7866C199.133 88.2281 198.391 88.4488 197.443 88.4488C196.676 88.4488 196.044 88.2346 195.547 87.7931C195.051 87.3516 194.799 86.7868 194.799 86.0922C194.799 84.9301 195.444 84.0926 196.734 83.5602L196.747 83.5667Z" fill="black"/>
    <path d="M206.175 79.2754L201.874 89.7992H200.913L205.208 79.2754H206.175Z" fill="black"/>
    <path d="M212.082 88.306H206.678V87.3841L209.29 84.7483C209.954 84.0731 210.431 83.5148 210.715 83.0733C210.999 82.6254 211.141 82.1514 211.141 81.6386C211.141 81.1257 210.992 80.7167 210.696 80.431C210.399 80.1454 209.98 80.0025 209.432 80.0025C208.632 80.0025 207.865 80.3466 207.13 81.0348V79.9506C207.833 79.3988 208.645 79.1261 209.574 79.1261C210.373 79.1261 210.999 79.3468 211.463 79.7818C211.921 80.2168 212.153 80.8076 212.153 81.5412C212.153 82.119 211.992 82.6838 211.676 83.2356C211.36 83.7875 210.793 84.4756 209.967 85.2936L207.897 87.3516V87.3776H212.069V88.3125L212.082 88.306Z" fill="black"/>
    <path d="M216.493 80.0025C215.21 80.0025 214.571 81.3075 214.571 83.9238C214.571 86.3648 215.197 87.5854 216.454 87.5854C217.712 87.5854 218.312 86.3454 218.312 83.8589C218.312 81.3724 217.706 80.0025 216.493 80.0025ZM216.345 88.4553C215.455 88.4553 214.765 88.0723 214.268 87.3062C213.772 86.5401 213.52 85.43 213.52 83.9757C213.52 82.3787 213.778 81.1776 214.301 80.3596C214.816 79.5416 215.571 79.1326 216.545 79.1326C218.421 79.1326 219.356 80.6777 219.356 83.7615C219.356 85.2871 219.092 86.4557 218.563 87.2543C218.034 88.0593 217.293 88.4618 216.345 88.4618V88.4553Z" fill="black"/>
    <path d="M225.889 88.306H220.485V87.3841L223.097 84.7483C223.761 84.0731 224.238 83.5148 224.522 83.0733C224.806 82.6254 224.954 82.1514 224.954 81.6386C224.954 81.1257 224.806 80.7167 224.509 80.431C224.213 80.1454 223.793 80.0025 223.245 80.0025C222.446 80.0025 221.678 80.3466 220.943 81.0348V79.9506C221.646 79.3988 222.458 79.1261 223.387 79.1261C224.187 79.1261 224.812 79.3468 225.277 79.7818C225.734 80.2168 225.967 80.8076 225.967 81.5412C225.967 82.119 225.805 82.6838 225.489 83.2356C225.173 83.7875 224.606 84.4756 223.78 85.2936L221.71 87.3516V87.3776H225.883V88.3125L225.889 88.306Z" fill="black"/>
    <path d="M230.294 80.0025C229.01 80.0025 228.372 81.3075 228.372 83.9238C228.372 86.3648 228.997 87.5854 230.255 87.5854C231.513 87.5854 232.112 86.3454 232.112 83.8589C232.112 81.3724 231.506 80.0025 230.294 80.0025ZM230.145 88.4553C229.255 88.4553 228.565 88.0723 228.069 87.3062C227.572 86.5401 227.321 85.43 227.321 83.9757C227.321 82.3787 227.579 81.1776 228.101 80.3596C228.617 79.5416 229.372 79.1326 230.345 79.1326C232.222 79.1326 233.157 80.6777 233.157 83.7615C233.157 85.2871 232.893 86.4557 232.364 87.2543C231.835 88.0593 231.093 88.4618 230.145 88.4618V88.4553Z" fill="black"/>
    <path d="M70.3437 84.8262L68.9378 80.9829C68.8927 80.853 68.8476 80.6518 68.8024 80.3791H68.7766C68.7379 80.6323 68.6863 80.8335 68.6347 80.9829L67.2418 84.8262H70.3501H70.3437ZM72.8007 88.306H71.6399L70.6919 85.774H66.8871L65.9907 88.306H64.8235L68.2607 79.2819H69.3506L72.8007 88.306V88.306Z" stroke="white" stroke-width="0.28" stroke-miterlimit="22.93"/>
    <path d="M73.5939 88.0723V86.9621C74.1485 87.3776 74.7675 87.5854 75.4382 87.5854C76.341 87.5854 76.7925 87.2802 76.7925 86.6765C76.7925 86.5077 76.7538 86.3583 76.6764 86.2415C76.599 86.1181 76.4958 86.0143 76.3604 85.9234C76.2314 85.8325 76.0766 85.7481 75.8961 85.6767C75.722 85.6053 75.5285 85.5273 75.3221 85.4494C75.0384 85.3326 74.7933 85.2222 74.5741 85.1054C74.3613 84.9885 74.1807 84.8587 74.0388 84.7158C73.8969 84.5665 73.7873 84.4042 73.7164 84.2224C73.6454 84.0406 73.6067 83.8199 73.6067 83.5732C73.6067 83.2681 73.6777 83.0019 73.8131 82.7682C73.955 82.5345 74.1355 82.3397 74.3613 82.1839C74.5934 82.0281 74.8514 81.9047 75.148 81.8268C75.4382 81.7489 75.7478 81.71 76.0573 81.71C76.6119 81.71 77.1085 81.8074 77.547 81.9956V83.0409C77.0762 82.7292 76.5345 82.5734 75.9219 82.5734C75.7284 82.5734 75.5543 82.5929 75.3995 82.6384C75.2447 82.6838 75.1158 82.7422 74.9997 82.8201C74.8901 82.898 74.8062 82.9954 74.7417 83.1058C74.6837 83.2161 74.6515 83.3395 74.6515 83.4758C74.6515 83.6446 74.6837 83.781 74.7417 83.8978C74.8062 84.0147 74.8901 84.1121 75.0061 84.203C75.1222 84.2938 75.2641 84.3718 75.4318 84.4432C75.5994 84.5146 75.7864 84.5925 75.9993 84.6769C76.283 84.7872 76.5345 84.8976 76.7602 85.0145C76.9859 85.1313 77.1794 85.2612 77.3342 85.404C77.4889 85.5468 77.6115 85.7156 77.7017 85.9039C77.7856 86.0922 77.8307 86.3194 77.8307 86.5791C77.8307 86.8972 77.7598 87.1764 77.6244 87.4101C77.4825 87.6438 77.2955 87.8385 77.0633 87.9944C76.8312 88.1502 76.5603 88.267 76.2572 88.3449C75.9541 88.4228 75.6317 88.4553 75.2963 88.4553C74.6386 88.4553 74.0646 88.3255 73.5874 88.0723H73.5939Z" stroke="white" stroke-width="0.28" stroke-miterlimit="22.93"/>
    <path d="M82.1645 82.5734C81.5067 82.5734 80.9843 82.8007 80.6039 83.2486C80.2169 83.6966 80.0299 84.3198 80.0299 85.1183C80.0299 85.9169 80.2234 86.4817 80.6103 86.9232C80.9972 87.3646 81.5196 87.5854 82.1645 87.5854C82.8094 87.5854 83.3382 87.3711 83.6928 86.9361C84.0475 86.5012 84.2281 85.8909 84.2281 85.0924C84.2281 84.2938 84.054 83.6641 83.6928 83.2291C83.3382 82.7877 82.8287 82.5734 82.1645 82.5734V82.5734ZM82.0871 88.4553C81.1391 88.4553 80.3846 88.1567 79.8236 87.5529C79.2625 86.9491 78.9788 86.1506 78.9788 85.1573C78.9788 84.0731 79.2754 83.2291 79.8622 82.6189C80.4491 82.0086 81.2423 81.71 82.2483 81.71C83.2543 81.71 83.9443 82.0021 84.4796 82.5994C85.0149 83.1902 85.2793 84.0082 85.2793 85.0599C85.2793 86.1116 84.9891 86.9102 84.4151 87.5334C83.8347 88.1502 83.0609 88.4618 82.0935 88.4618L82.0871 88.4553Z" stroke="white" stroke-width="0.28" stroke-miterlimit="22.93"/>
    <path d="M91.283 88.0073C90.7929 88.306 90.2061 88.4553 89.5354 88.4553C88.6197 88.4553 87.8845 88.1567 87.3235 87.5594C86.7624 86.9621 86.4851 86.1895 86.4851 85.2352C86.4851 84.1705 86.7882 83.32 87.3944 82.6773C88.0006 82.0346 88.8067 81.71 89.8127 81.71C90.3737 81.71 90.8703 81.8138 91.3024 82.0216V83.0798C90.8252 82.7422 90.3157 82.5799 89.774 82.5799C89.1227 82.5799 88.581 82.8136 88.1618 83.2876C87.7426 83.755 87.5298 84.3782 87.5298 85.1443C87.5298 85.9104 87.7297 86.4947 88.1231 86.9296C88.5165 87.3646 89.0453 87.5854 89.7095 87.5854C90.2706 87.5854 90.7929 87.3971 91.283 87.027V88.0073V88.0073Z" stroke="white" stroke-width="0.28" stroke-miterlimit="22.93"/>
    <path d="M93.8561 88.306H92.8307V81.8593H93.8561V88.306ZM93.3531 80.2233C93.1725 80.2233 93.0113 80.1584 92.8888 80.035C92.7598 79.9116 92.6953 79.7493 92.6953 79.5611C92.6953 79.3728 92.7598 79.204 92.8888 79.0807C93.0177 78.9508 93.1725 78.8859 93.3531 78.8859C93.5337 78.8859 93.7013 78.9508 93.8303 79.0807C93.9593 79.2105 94.0238 79.3663 94.0238 79.5611C94.0238 79.7558 93.9593 79.9052 93.8303 80.0285C93.6949 80.1583 93.5401 80.2233 93.3531 80.2233V80.2233Z" stroke="white" stroke-width="0.28" stroke-miterlimit="22.93"/>
    <path d="M99.4924 85.0404L97.9512 85.2547C97.4739 85.3196 97.1193 85.4365 96.8742 85.6117C96.6356 85.7805 96.5131 86.0792 96.5131 86.5142C96.5131 86.8258 96.6227 87.0855 96.8484 87.2867C97.0677 87.488 97.3643 87.5854 97.7383 87.5854C98.2478 87.5854 98.667 87.4036 98.9959 87.0465C99.3312 86.6894 99.4924 86.235 99.4924 85.6832V85.0404V85.0404ZM100.518 88.2995H99.4924V87.2932H99.4666C99.0217 88.0658 98.3639 88.4488 97.4997 88.4488C96.8613 88.4488 96.3647 88.28 96.0036 87.9424C95.6425 87.6048 95.4619 87.1504 95.4619 86.5856C95.4619 85.3845 96.1648 84.6769 97.5771 84.4821L99.4989 84.2095C99.4989 83.1123 99.0604 82.5669 98.1769 82.5669C97.4095 82.5669 96.713 82.8331 96.0875 83.359V82.3008C96.7194 81.8982 97.4417 81.697 98.2607 81.697C99.7633 81.697 100.518 82.4955 100.518 84.0991V88.293V88.2995Z" stroke="white" stroke-width="0.28" stroke-miterlimit="22.93"/>
    <path d="M106.812 88.0073C106.322 88.306 105.735 88.4553 105.064 88.4553C104.148 88.4553 103.413 88.1567 102.852 87.5594C102.291 86.9621 102.014 86.1895 102.014 85.2352C102.014 84.1705 102.317 83.32 102.923 82.6773C103.529 82.0346 104.335 81.71 105.342 81.71C105.903 81.71 106.399 81.8138 106.831 82.0216V83.0798C106.354 82.7422 105.845 82.5799 105.303 82.5799C104.651 82.5799 104.11 82.8136 103.691 83.2876C103.271 83.755 103.059 84.3782 103.059 85.1443C103.059 85.9104 103.259 86.4947 103.652 86.9296C104.045 87.3646 104.574 87.5854 105.238 87.5854C105.799 87.5854 106.322 87.3971 106.812 87.027V88.0073V88.0073Z" stroke="white" stroke-width="0.28" stroke-miterlimit="22.93"/>
    <path d="M109.391 88.306H108.366V81.8593H109.391V88.306ZM108.888 80.2233C108.708 80.2233 108.546 80.1584 108.424 80.035C108.295 79.9116 108.23 79.7493 108.23 79.5611C108.23 79.3728 108.295 79.204 108.424 79.0807C108.553 78.9508 108.708 78.8859 108.888 78.8859C109.069 78.8859 109.236 78.9508 109.365 79.0807C109.494 79.2105 109.559 79.3663 109.559 79.5611C109.559 79.7558 109.494 79.9052 109.365 80.0285C109.23 80.1583 109.075 80.2233 108.888 80.2233V80.2233Z" stroke="white" stroke-width="0.28" stroke-miterlimit="22.93"/>
    <path d="M115.718 78.5743L114.08 80.6388H113.286L114.679 78.5743H115.718V78.5743ZM114.221 82.5799C113.564 82.5799 113.041 82.8072 112.661 83.2551C112.274 83.7031 112.087 84.3263 112.087 85.1248C112.087 85.9234 112.28 86.4882 112.667 86.9297C113.054 87.3711 113.577 87.5919 114.221 87.5919C114.866 87.5919 115.395 87.3776 115.75 86.9426C116.105 86.5077 116.285 85.8974 116.285 85.0989C116.285 84.3003 116.111 83.6706 115.75 83.2356C115.395 82.7942 114.886 82.5799 114.221 82.5799V82.5799ZM114.144 88.4618C113.196 88.4618 112.442 88.1632 111.874 87.5594C111.313 86.9556 111.029 86.1571 111.029 85.1638C111.029 84.0796 111.326 83.2356 111.913 82.6254C112.5 82.0151 113.293 81.7165 114.299 81.7165C115.305 81.7165 115.995 82.0086 116.537 82.6059C117.072 83.1967 117.336 84.0147 117.336 85.0664C117.336 86.1181 117.046 86.9167 116.472 87.5399C115.892 88.1567 115.118 88.4683 114.151 88.4683L114.144 88.4618Z" stroke="white" stroke-width="0.28" stroke-miterlimit="22.93"/>
    <path d="M124.288 88.306H123.263V84.6314C123.263 83.2616 122.766 82.5799 121.773 82.5799C121.263 82.5799 120.838 82.7747 120.502 83.1642C120.167 83.5537 119.999 84.0407 119.999 84.6314V88.306H118.974V81.8593H119.999V82.9305H120.025C120.509 82.119 121.205 81.71 122.128 81.71C122.831 81.71 123.366 81.9372 123.733 82.3917C124.107 82.8461 124.288 83.5018 124.288 84.3653V88.306Z" stroke="white" stroke-width="0.28" stroke-miterlimit="22.93"/>
    <path d="M135.967 87.9294C135.303 88.28 134.477 88.4553 133.49 88.4553C132.214 88.4553 131.195 88.0398 130.427 87.2153C129.66 86.3908 129.273 85.3001 129.273 83.9627C129.273 82.5215 129.705 81.3529 130.569 80.4635C131.433 79.5741 132.53 79.1261 133.852 79.1261C134.703 79.1261 135.406 79.2494 135.967 79.4961V80.6258C135.322 80.2622 134.613 80.0869 133.839 80.0869C132.807 80.0869 131.975 80.431 131.337 81.1257C130.698 81.8203 130.376 82.7422 130.376 83.9043C130.376 85.0664 130.672 85.8779 131.272 86.5336C131.872 87.1893 132.652 87.5139 133.626 87.5139C134.522 87.5139 135.303 87.3127 135.96 86.9102V87.9359L135.967 87.9294Z" stroke="white" stroke-width="0.28" stroke-miterlimit="22.93"/>
    <path d="M138.682 88.306H137.656V81.8593H138.682V88.306ZM138.179 80.2233C137.998 80.2233 137.837 80.1584 137.714 80.035C137.585 79.9116 137.521 79.7493 137.521 79.5611C137.521 79.3728 137.585 79.204 137.714 79.0807C137.843 78.9508 137.998 78.8859 138.179 78.8859C138.359 78.8859 138.527 78.9508 138.656 79.0807C138.785 79.2105 138.849 79.3663 138.849 79.5611C138.849 79.7558 138.785 79.9052 138.656 80.0285C138.521 80.1583 138.366 80.2233 138.179 80.2233V80.2233Z" stroke="white" stroke-width="0.28" stroke-miterlimit="22.93"/>
    <path d="M145.788 81.8593L143.235 88.306H142.229L139.804 81.8593H140.926L142.551 86.5466C142.674 86.8907 142.745 87.1893 142.777 87.449H142.803C142.848 87.1244 142.912 86.8323 143.003 86.5726L144.705 81.8658H145.788V81.8593Z" stroke="white" stroke-width="0.28" stroke-miterlimit="22.93"/>
    <path d="M147.916 88.306H146.891V81.8593H147.916V88.306ZM147.413 80.2233C147.233 80.2233 147.072 80.1584 146.949 80.035C146.82 79.9116 146.756 79.7493 146.756 79.5611C146.756 79.3728 146.82 79.204 146.949 79.0807C147.078 78.9508 147.233 78.8859 147.413 78.8859C147.594 78.8859 147.762 78.9508 147.891 79.0807C148.02 79.2105 148.084 79.3663 148.084 79.5611C148.084 79.7558 148.02 79.9052 147.891 80.0285C147.755 80.1583 147.6 80.2233 147.413 80.2233V80.2233Z" stroke="white" stroke-width="0.28" stroke-miterlimit="22.93"/>
    <path d="M151.018 78.7625H149.993V88.306H151.018V78.7625Z" stroke="white" stroke-width="0.28" stroke-miterlimit="22.93"/>
    <path d="M163.968 88.306H162.678L158.06 81.1127C157.944 80.9309 157.848 80.7426 157.77 80.5479H157.732C157.764 80.7426 157.783 81.1517 157.783 81.7879V88.306H156.732V79.2819H158.093L162.581 86.3648C162.768 86.657 162.891 86.8582 162.942 86.9686H162.968C162.923 86.7089 162.903 86.2675 162.903 85.6377V79.2819H163.955V88.306H163.968Z" stroke="white" stroke-width="0.28" stroke-miterlimit="22.93"/>
    <path d="M167.553 79.9116C167.282 79.9116 167.05 80.009 166.857 80.2038C166.663 80.3921 166.566 80.6323 166.566 80.9049C166.566 81.1776 166.663 81.4243 166.85 81.6256C167.037 81.8268 167.269 81.9242 167.54 81.9242C167.811 81.9242 168.043 81.8203 168.243 81.6256C168.437 81.4243 168.54 81.1841 168.54 80.9049C168.54 80.6258 168.443 80.3921 168.25 80.2038C168.056 80.0155 167.824 79.9181 167.553 79.9181V79.9116ZM167.553 82.6578C167.076 82.6578 166.663 82.489 166.328 82.1449C165.992 81.8009 165.818 81.3919 165.818 80.9049C165.818 80.418 165.986 80.0155 166.321 79.6779C166.657 79.3468 167.063 79.178 167.54 79.178C168.017 79.178 168.437 79.3468 168.778 79.6779C169.12 80.0155 169.288 80.4245 169.288 80.8985C169.288 81.3724 169.12 81.8009 168.778 82.1384C168.443 82.4825 168.03 82.6513 167.553 82.6513V82.6578Z" stroke="white" stroke-width="0.28" stroke-miterlimit="22.93"/>
    <path d="M179.483 88.306H174.079V87.3841L176.691 84.7483C177.355 84.0731 177.833 83.5148 178.116 83.0733C178.4 82.6254 178.548 82.1514 178.548 81.6386C178.548 81.1257 178.4 80.7167 178.103 80.431C177.807 80.1454 177.388 80.0025 176.839 80.0025C176.04 80.0025 175.272 80.3466 174.537 81.0348V79.9506C175.24 79.3988 176.053 79.1261 176.981 79.1261C177.781 79.1261 178.406 79.3468 178.871 79.7818C179.329 80.2168 179.561 80.8076 179.561 81.5412C179.561 82.119 179.4 82.6838 179.084 83.2356C178.768 83.7875 178.2 84.4756 177.375 85.2936L175.305 87.3516V87.3776H179.477V88.3125L179.483 88.306Z" stroke="white" stroke-width="0.28" stroke-miterlimit="22.93"/>
    <path d="M186.384 88.306H180.979V87.3841L183.591 84.7483C184.255 84.0731 184.733 83.5148 185.016 83.0733C185.3 82.6254 185.449 82.1514 185.449 81.6386C185.449 81.1257 185.3 80.7167 185.004 80.431C184.707 80.1454 184.288 80.0025 183.74 80.0025C182.94 80.0025 182.173 80.3466 181.437 81.0348V79.9506C182.14 79.3988 182.953 79.1261 183.881 79.1261C184.681 79.1261 185.307 79.3468 185.771 79.7818C186.229 80.2168 186.461 80.8076 186.461 81.5412C186.461 82.119 186.3 82.6838 185.984 83.2356C185.668 83.7875 185.1 84.4756 184.275 85.2936L182.205 87.3516V87.3776H186.377V88.3125L186.384 88.306Z" stroke="white" stroke-width="0.28" stroke-miterlimit="22.93"/>
    <path d="M188.105 87.9684V86.8517C188.718 87.3387 189.408 87.5854 190.182 87.5854C190.808 87.5854 191.304 87.4295 191.678 87.1114C192.052 86.7998 192.239 86.3713 192.239 85.839C192.239 84.6639 191.407 84.0731 189.743 84.0731H189.002V83.1967H189.711C191.188 83.1967 191.93 82.6448 191.93 81.5347C191.93 80.5089 191.362 79.9961 190.234 79.9961C189.602 79.9961 189.008 80.2103 188.454 80.6453V79.639C189.028 79.2949 189.711 79.1196 190.492 79.1196C191.272 79.1196 191.846 79.3209 192.304 79.7234C192.755 80.1259 192.981 80.6388 192.981 81.2685C192.981 82.4566 192.381 83.2226 191.182 83.5602V83.5862C191.826 83.6511 192.342 83.8783 192.723 84.2679C193.103 84.6639 193.297 85.1508 193.297 85.7351C193.297 86.5466 193.007 87.2023 192.433 87.6957C191.852 88.1956 191.091 88.4423 190.15 88.4423C189.298 88.4423 188.621 88.28 188.118 87.9619L188.105 87.9684Z" stroke="white" stroke-width="0.28" stroke-miterlimit="22.93"/>
    <path d="M197.579 84.0601C196.437 84.5146 195.864 85.1833 195.864 86.0467C195.864 86.4947 196.031 86.8647 196.36 87.1504C196.689 87.436 197.127 87.5854 197.669 87.5854C198.211 87.5854 198.611 87.4425 198.933 87.1569C199.262 86.8712 199.423 86.5142 199.423 86.0857C199.423 85.1768 198.804 84.5016 197.572 84.0601H197.579ZM199.133 81.3399C199.133 80.9244 199.004 80.5933 198.746 80.3596C198.488 80.1194 198.133 80.0025 197.689 80.0025C197.269 80.0025 196.921 80.1259 196.631 80.3791C196.341 80.6258 196.199 80.9439 196.199 81.3334C196.199 82.119 196.683 82.7098 197.656 83.1058C198.643 82.6968 199.14 82.106 199.14 81.3464L199.133 81.3399ZM196.753 83.5667V83.5407C195.677 83.0409 195.141 82.3072 195.141 81.3529C195.141 80.7037 195.386 80.1648 195.876 79.7493C196.367 79.3338 196.999 79.1196 197.779 79.1196C198.482 79.1196 199.056 79.3144 199.501 79.7039C199.952 80.0934 200.178 80.5933 200.178 81.2101C200.178 82.2099 199.623 82.9824 198.514 83.5407V83.5667C199.823 84.0342 200.474 84.8522 200.474 86.0078C200.474 86.7544 200.21 87.3516 199.675 87.7866C199.14 88.2281 198.398 88.4488 197.45 88.4488C196.683 88.4488 196.051 88.2346 195.554 87.7931C195.057 87.3516 194.806 86.7868 194.806 86.0922C194.806 84.9301 195.451 84.0926 196.741 83.5602L196.753 83.5667Z" stroke="white" stroke-width="0.28" stroke-miterlimit="22.93"/>
    <path d="M206.175 79.2754L201.874 89.7992H200.913L205.208 79.2754H206.175Z" stroke="white" stroke-width="0.28" stroke-miterlimit="22.93"/>
    <path d="M212.082 88.306H206.678V87.3841L209.29 84.7483C209.954 84.0731 210.431 83.5148 210.715 83.0733C210.999 82.6254 211.141 82.1514 211.141 81.6386C211.141 81.1257 210.992 80.7167 210.696 80.431C210.399 80.1454 209.98 80.0025 209.432 80.0025C208.632 80.0025 207.865 80.3466 207.13 81.0348V79.9506C207.833 79.3988 208.645 79.1261 209.574 79.1261C210.373 79.1261 210.999 79.3468 211.463 79.7818C211.921 80.2168 212.153 80.8076 212.153 81.5412C212.153 82.119 211.992 82.6838 211.676 83.2356C211.36 83.7875 210.793 84.4756 209.967 85.2936L207.897 87.3516V87.3776H212.069V88.3125L212.082 88.306Z" stroke="white" stroke-width="0.28" stroke-miterlimit="22.93"/>
    <path d="M216.493 80.0025C215.21 80.0025 214.571 81.3075 214.571 83.9238C214.571 86.3648 215.197 87.5854 216.454 87.5854C217.712 87.5854 218.312 86.3454 218.312 83.8589C218.312 81.3724 217.706 80.0025 216.493 80.0025V80.0025ZM216.345 88.4553C215.455 88.4553 214.765 88.0723 214.268 87.3062C213.772 86.5401 213.52 85.43 213.52 83.9757C213.52 82.3787 213.778 81.1776 214.301 80.3596C214.816 79.5416 215.571 79.1326 216.545 79.1326C218.421 79.1326 219.356 80.6777 219.356 83.7615C219.356 85.2871 219.092 86.4557 218.563 87.2543C218.034 88.0593 217.293 88.4618 216.345 88.4618V88.4553Z" stroke="white" stroke-width="0.28" stroke-miterlimit="22.93"/>
    <path d="M225.889 88.306H220.485V87.3841L223.097 84.7483C223.761 84.0731 224.238 83.5148 224.522 83.0733C224.806 82.6254 224.954 82.1514 224.954 81.6386C224.954 81.1257 224.806 80.7167 224.509 80.431C224.213 80.1454 223.793 80.0025 223.245 80.0025C222.446 80.0025 221.678 80.3466 220.943 81.0348V79.9506C221.646 79.3988 222.458 79.1261 223.387 79.1261C224.187 79.1261 224.812 79.3468 225.277 79.7818C225.734 80.2168 225.967 80.8076 225.967 81.5412C225.967 82.119 225.805 82.6838 225.489 83.2356C225.173 83.7875 224.606 84.4756 223.78 85.2936L221.71 87.3516V87.3776H225.883V88.3125L225.889 88.306Z" stroke="white" stroke-width="0.28" stroke-miterlimit="22.93"/>
    <path d="M230.294 80.0025C229.01 80.0025 228.372 81.3075 228.372 83.9238C228.372 86.3648 228.997 87.5854 230.255 87.5854C231.513 87.5854 232.112 86.3454 232.112 83.8589C232.112 81.3724 231.506 80.0025 230.294 80.0025V80.0025ZM230.145 88.4553C229.255 88.4553 228.565 88.0723 228.069 87.3062C227.572 86.5401 227.321 85.43 227.321 83.9757C227.321 82.3787 227.579 81.1776 228.101 80.3596C228.617 79.5416 229.372 79.1326 230.345 79.1326C232.222 79.1326 233.157 80.6777 233.157 83.7615C233.157 85.2871 232.893 86.4557 232.364 87.2543C231.835 88.0593 231.093 88.4618 230.145 88.4618V88.4553Z" stroke="white" stroke-width="0.28" stroke-miterlimit="22.93"/>
    </g>
    <defs>
    <clipPath id="clip0_16_283">
    <rect width="253" height="92" fill="black"/>
    </clipPath>
    </defs>
    </svg>
    