<svg width="261" height="100" viewBox="0 0 261 100" fill="none" xmlns="http://www.w3.org/2000/svg">
    <g clip-path="url(#clip0_16_215)" filter="url(#filter0_d_16_215)">
    <path fill-rule="evenodd" clip-rule="evenodd" d="M34.7803 63.4411C33.6518 56.6373 31.5108 49.8206 28.5701 43.6011C26.184 38.5438 23.1982 34.0772 19.1935 30.1819C18.381 29.3963 14.3569 25.1765 17.7167 26.1243C19.9867 26.767 21.2765 29.0198 23.4755 29.7794C27.6737 31.2336 29.6857 27.1371 28.8925 23.4366C28.5121 21.6642 26.6032 17.5222 28.4734 15.9771C30.1049 14.6332 32.4523 18.9635 32.9424 19.9048C33.8968 21.7551 34.8319 28.4355 38.1273 25.1245C39.3461 23.904 40.0232 22.2095 41.3775 21.1059C42.7382 20.0022 43.5249 22.2355 43.5636 23.2093C43.641 25.0596 42.9703 27.0527 42.5189 28.825C42.2609 29.8378 43.8216 30.2079 44.0731 29.2016C44.6277 27.0072 46.9299 19.0089 42.0546 19.2167C40.6874 19.2751 39.7846 20.3138 38.9849 21.3266C38.4432 22.0148 37.966 22.7484 37.4372 23.4431C36.2249 25.0466 35.9347 23.508 35.5348 22.1576C34.7481 19.5218 32.2846 13.5166 28.5508 14.2437C24.746 14.9838 26.5323 20.8397 27.1965 23.1379C27.6673 24.7739 27.7447 27.1501 26.2163 28.2667C24.6428 29.4223 22.3986 27.3124 21.341 26.371C20.1802 25.3323 18.6389 24.5532 17.0977 24.3455C13.3702 23.8326 15.0082 27.7473 16.2787 29.3704C18.1295 31.727 20.4704 33.6162 22.289 36.0248C24.114 38.4399 25.5843 41.1211 26.9063 43.8413C29.1763 48.5027 30.7949 53.5081 32.0718 58.5265C32.4329 59.9548 33.0069 62.5841 33.1617 63.4995C33.3293 64.5123 34.9351 64.4668 34.761 63.4411" fill="#FFCA05"/>
    <path d="M64.7543 54.1833H57.6541V59.1563H64.1803V62.8568H57.6541V70.7253H53.1206V50.4698H64.7543V54.1833Z" fill="#F48120"/>
    <path d="M83.8042 61.9543C83.8042 68.0375 80.9861 71.0758 75.3627 71.0758C69.7393 71.0758 67.1663 68.1024 67.1663 62.1621V50.4633H71.7127V62.214C71.7127 65.4925 72.9895 67.135 75.5304 67.135C78.0712 67.135 79.2771 65.551 79.2771 62.3828V50.4633H83.8107V61.9478L83.8042 61.9543Z" fill="#F48120"/>
    <path d="M98.4172 70.7253H86.345V50.4698H97.9528V54.1833H90.8785V58.6889H97.4627V62.3894H90.8785V67.0248H98.4172V70.7253Z" fill="#F48120"/>
    <path d="M106.175 53.8912V59.5264H108.135C109.109 59.5264 109.89 59.2407 110.476 58.6759C111.076 58.1046 111.379 57.3905 111.379 56.5465C111.379 54.7741 110.328 53.8912 108.219 53.8912H106.175ZM118.525 70.7318H113.32L110.193 65.5186C109.96 65.1226 109.735 64.772 109.516 64.4604C109.303 64.1488 109.083 63.8891 108.864 63.6619C108.645 63.4411 108.413 63.2723 108.174 63.149C107.936 63.0321 107.678 62.9737 107.4 62.9737H106.181V70.7253H101.648V50.4698H108.832C113.72 50.4698 116.158 52.3071 116.158 55.9752C116.158 56.6828 116.048 57.332 115.829 57.9358C115.616 58.5331 115.313 59.0719 114.92 59.5588C114.526 60.0393 114.055 60.4483 113.494 60.7988C112.933 61.1494 112.314 61.4221 111.631 61.6168V61.6753C111.934 61.7727 112.218 61.922 112.501 62.1362C112.785 62.3504 113.049 62.5972 113.314 62.8763C113.578 63.162 113.823 63.4671 114.068 63.7852C114.307 64.1098 114.526 64.4279 114.72 64.7396L118.525 70.7253V70.7318Z" fill="#F48120"/>
    <path d="M135.549 70.7253H119.344V68.096L129.655 54.1833H120.085V50.4698H135.524V53.0278L125.438 67.0248H135.549V70.7253Z" fill="#F48120"/>
    <path d="M148.802 62.7205L146.641 55.9102C146.48 55.3974 146.371 54.7936 146.3 54.0859H146.19C146.145 54.6767 146.029 55.2675 145.842 55.8518L143.656 62.7205H148.802ZM156.211 70.7318H151.272L149.84 66.2262H142.682L141.263 70.7318H136.349L143.675 50.4763H149.047L156.205 70.7318H156.211Z" fill="#F48120"/>
    <path d="M170.844 62.7205L168.683 55.9102C168.522 55.3974 168.413 54.7936 168.342 54.0859H168.232C168.187 54.6767 168.071 55.2675 167.884 55.8518L165.698 62.7205H170.844ZM178.253 70.7318H173.314L171.882 66.2262H164.724L163.305 70.7318H158.391L165.717 50.4763H171.089L178.247 70.7318H178.253Z" fill="#FFCA05"/>
    <path d="M193.357 70.0111C191.893 70.7252 189.971 71.0823 187.604 71.0823C184.522 71.0823 182.091 70.1734 180.324 68.3426C178.55 66.5183 177.673 64.0773 177.673 61.039C177.673 57.7994 178.666 55.1701 180.652 53.1575C182.639 51.145 185.225 50.1322 188.391 50.1322C190.358 50.1322 192.015 50.3854 193.357 50.8853V55.2805C192.009 54.4689 190.48 54.0664 188.752 54.0664C186.863 54.0664 185.334 54.6637 184.18 55.8583C183.019 57.0528 182.439 58.6758 182.439 60.7209C182.439 62.7659 182.987 64.2396 184.083 65.4017C185.173 66.5638 186.65 67.1481 188.507 67.1481C190.364 67.1481 191.893 66.7131 193.357 65.8432V70.0111Z" fill="#FFCA05"/>
    <path d="M210.994 54.1833H205.255V70.7253H200.708V54.1833H194.995V50.4698H210.994V54.1833Z" fill="#FFCA05"/>
    <path d="M219.919 50.4698V54.0016H218.236V67.2001H219.919V70.7253H212.02V67.2001H213.703V54.0016H212.02V50.4698H219.919Z" fill="#FFCA05"/>
    <path d="M239.562 50.4698L232.63 70.7253H227.497L220.648 50.4698H225.536L229.734 64.5708C229.96 65.3303 230.095 66.0055 230.141 66.5898H230.224C230.289 65.9601 230.437 65.2654 230.663 64.5123L234.829 50.4698H239.575H239.562Z" fill="#FFCA05"/>
    <path d="M249.59 62.7205L247.43 55.9102C247.269 55.3974 247.159 54.7936 247.088 54.0859H246.979C246.933 54.6767 246.817 55.2675 246.63 55.8518L244.444 62.7205H249.59ZM257 70.7318H252.06L250.629 66.2262H243.47L242.052 70.7318H237.138L244.464 50.4763H249.835L256.994 70.7318H257Z" fill="#FFCA05"/>
    <path d="M31.5622 72.6859C35.6443 72.8482 39.8876 72.1665 41.2032 71.381C41.1065 71.3031 40.9775 71.2057 40.8098 71.0953C39.3911 70.1604 35.2445 71.0109 31.5622 72.6924M29.6727 81.632C34.2772 82.9499 39.9263 81.8138 41.8674 80.801C41.6804 80.7296 41.4418 80.6452 41.1516 80.5673C37.4307 79.5156 32.6392 80.2297 29.6727 81.6385V81.632ZM30.5046 92.013C30.208 92.0259 29.9113 91.948 29.634 91.7922C23.398 88.0852 23.1852 84.7223 24.1074 82.5604C24.1267 82.515 24.1461 82.4695 24.1719 82.4241C21.7213 80.418 21.3215 77.6978 23.1143 75.0815C23.2948 74.8153 23.5077 74.5426 23.7398 74.2765C21.8181 73.2442 21.2828 71.9198 21.2441 70.8226C21.0313 64.5902 30.4917 63.4281 36.7471 62.6555C38.3786 62.4543 39.9199 62.266 40.6228 62.0518C41.2548 61.857 41.416 61.6817 41.2484 58.7343C41.1387 56.7996 40.9904 54.1444 41.6675 51.0281C42.5123 47.1393 44.8017 44.6074 47.2135 41.9197C50.3541 38.4334 53.6043 34.8303 54.1847 27.5006C54.8102 19.6776 52.8111 13.2439 48.4194 8.90069C44.0665 4.59641 37.4693 2.64877 29.8468 3.40835C14.1246 4.95347 7.86283 15.3344 7.28243 23.7482C6.41184 36.3299 12.9058 41.2055 17.6521 44.7632L18.2261 45.1982C24.1332 49.6648 27.0158 56.8061 27.5124 60.5196C27.6285 61.4026 27.0158 62.2141 26.1388 62.3309C25.2553 62.4478 24.4556 61.831 24.3396 60.9481C23.9268 57.8968 21.386 51.6189 16.2979 47.7756L15.7368 47.3471C11.0034 43.8024 3.0907 37.8621 4.08382 23.521C4.7545 13.8542 11.8224 1.94762 29.5373 0.175265C38.1207 -0.681696 45.6207 1.59055 50.6701 6.57651C55.7646 11.6144 58.0927 18.931 57.3897 27.7344C56.7191 36.1611 52.9336 40.3616 49.5931 44.0621C47.3812 46.5226 45.4659 48.6455 44.8017 51.6903C44.2148 54.3781 44.3438 56.6763 44.447 58.5265C44.6017 61.2792 44.763 64.1228 41.5579 65.1096C40.5841 65.4082 39.0622 65.5965 37.134 65.8302C32.6585 66.382 24.3331 67.4078 24.4427 70.6863C24.4492 70.9005 24.9522 71.4004 26.2677 71.8419C26.3258 71.8614 26.3838 71.8809 26.4483 71.9003C31.3559 68.479 39.217 66.1678 42.5768 68.3946C44.9629 69.9722 44.7823 71.5757 44.4599 72.3872C43.0282 76.0423 32.665 76.3669 27.7445 75.51C27.5317 75.471 27.3318 75.4385 27.1319 75.3931C26.5708 75.8735 26.1001 76.3734 25.7583 76.8798C25.0489 77.9185 24.8684 78.8404 26.2484 79.9311C29.9887 77.0486 37.1082 76.0423 42.0287 77.4381C42.8412 77.6718 45.324 78.373 45.5884 80.3661C45.698 81.1776 45.4594 82.3721 43.7054 83.4304C40.668 85.2611 32.7553 86.5076 26.9836 84.0536C26.5386 85.9363 29.8017 88.1177 31.2785 88.9941C32.0394 89.4486 32.2909 90.4354 31.846 91.2014C31.5558 91.6948 31.0463 91.974 30.5175 91.9935L30.5046 92.013Z" fill="#F48120"/>
    <path d="M74.3437 84.8261L72.9378 80.9828C72.8927 80.853 72.8476 80.6517 72.8024 80.379H72.7766C72.7379 80.6322 72.6863 80.8335 72.6347 80.9828L71.2418 84.8261H74.3501H74.3437ZM76.8007 88.3059H75.6399L74.6919 85.774H70.8871L69.9907 88.3059H68.8235L72.2607 79.2819H73.3506L76.8007 88.3059Z" fill="#231F20"/>
    <path d="M77.5939 88.0723V86.9621C78.1485 87.3776 78.7675 87.5853 79.4382 87.5853C80.341 87.5853 80.7925 87.2802 80.7925 86.6764C80.7925 86.5076 80.7538 86.3583 80.6764 86.2415C80.599 86.1181 80.4958 86.0142 80.3604 85.9234C80.2314 85.8325 80.0766 85.7481 79.8961 85.6767C79.722 85.6052 79.5285 85.5273 79.3221 85.4494C79.0384 85.3326 78.7933 85.2222 78.5741 85.1053C78.3613 84.9885 78.1807 84.8586 78.0388 84.7158C77.8969 84.5665 77.7873 84.4042 77.7164 84.2224C77.6454 84.0406 77.6067 83.8199 77.6067 83.5732C77.6067 83.2681 77.6777 83.0019 77.8131 82.7682C77.955 82.5345 78.1355 82.3397 78.3613 82.1839C78.5934 82.0281 78.8514 81.9047 79.148 81.8268C79.4382 81.7489 79.7478 81.71 80.0573 81.71C80.6119 81.71 81.1085 81.8073 81.547 81.9956V83.0408C81.0762 82.7292 80.5345 82.5734 79.9219 82.5734C79.7284 82.5734 79.5543 82.5929 79.3995 82.6383C79.2447 82.6838 79.1158 82.7422 78.9997 82.8201C78.8901 82.898 78.8062 82.9954 78.7417 83.1058C78.6837 83.2161 78.6515 83.3395 78.6515 83.4758C78.6515 83.6446 78.6837 83.7809 78.7417 83.8978C78.8062 84.0147 78.8901 84.112 79.0061 84.2029C79.1222 84.2938 79.2641 84.3717 79.4318 84.4432C79.5994 84.5146 79.7864 84.5925 79.9993 84.6769C80.283 84.7872 80.5345 84.8976 80.7602 85.0145C80.9859 85.1313 81.1794 85.2612 81.3342 85.404C81.4889 85.5468 81.6115 85.7156 81.7017 85.9039C81.7856 86.0922 81.8307 86.3194 81.8307 86.5791C81.8307 86.8972 81.7598 87.1763 81.6244 87.4101C81.4825 87.6438 81.2955 87.8385 81.0633 87.9943C80.8312 88.1502 80.5603 88.267 80.2572 88.3449C79.9541 88.4228 79.6317 88.4553 79.2963 88.4553C78.6386 88.4553 78.0646 88.3254 77.5874 88.0723" fill="#231F20"/>
    <path d="M86.1645 82.5734C85.5067 82.5734 84.9843 82.8006 84.6039 83.2486C84.2169 83.6966 84.0299 84.3198 84.0299 85.1183C84.0299 85.9169 84.2234 86.4817 84.6103 86.9231C84.9972 87.3646 85.5196 87.5853 86.1645 87.5853C86.8094 87.5853 87.3382 87.3711 87.6928 86.9361C88.0475 86.5012 88.2281 85.8909 88.2281 85.0924C88.2281 84.2938 88.054 83.6641 87.6928 83.2291C87.3382 82.7877 86.8287 82.5734 86.1645 82.5734ZM86.0871 88.4553C85.1391 88.4553 84.3846 88.1566 83.8236 87.5529C83.2625 86.9491 82.9788 86.1506 82.9788 85.1573C82.9788 84.0731 83.2754 83.2291 83.8622 82.6189C84.4491 82.0086 85.2423 81.71 86.2483 81.71C87.2543 81.71 87.9443 82.0021 88.4796 82.5994C89.0149 83.1902 89.2793 84.0082 89.2793 85.0599C89.2793 86.1116 88.9891 86.9102 88.4151 87.5334C87.8347 88.1502 87.0609 88.4618 86.0935 88.4618L86.0871 88.4553Z" fill="#231F20"/>
    <path d="M95.283 88.0073C94.7929 88.306 94.2061 88.4553 93.5354 88.4553C92.6197 88.4553 91.8845 88.1566 91.3235 87.5594C90.7624 86.9621 90.4851 86.1895 90.4851 85.2352C90.4851 84.1705 90.7882 83.32 91.3944 82.6773C92.0006 82.0346 92.8067 81.71 93.8127 81.71C94.3737 81.71 94.8703 81.8138 95.3024 82.0216V83.0798C94.8252 82.7422 94.3157 82.5799 93.774 82.5799C93.1227 82.5799 92.581 82.8136 92.1618 83.2875C91.7426 83.755 91.5298 84.3782 91.5298 85.1443C91.5298 85.9104 91.7297 86.4947 92.1231 86.9296C92.5165 87.3646 93.0453 87.5853 93.7095 87.5853C94.2706 87.5853 94.7929 87.3971 95.283 87.027V88.0073Z" fill="#231F20"/>
    <path d="M97.8561 88.3059H96.8307V81.8593H97.8561V88.3059ZM97.3531 80.2232C97.1725 80.2232 97.0113 80.1583 96.8888 80.035C96.7598 79.9116 96.6953 79.7493 96.6953 79.561C96.6953 79.3728 96.7598 79.204 96.8888 79.0806C97.0177 78.9508 97.1725 78.8859 97.3531 78.8859C97.5337 78.8859 97.7013 78.9508 97.8303 79.0806C97.9593 79.2105 98.0238 79.3663 98.0238 79.561C98.0238 79.7558 97.9593 79.9051 97.8303 80.0285C97.6949 80.1583 97.5401 80.2232 97.3531 80.2232Z" fill="#231F20"/>
    <path d="M103.492 85.0405L101.951 85.2547C101.474 85.3196 101.119 85.4365 100.874 85.6118C100.636 85.7806 100.513 86.0792 100.513 86.5142C100.513 86.8258 100.623 87.0855 100.848 87.2867C101.068 87.488 101.364 87.5854 101.738 87.5854C102.248 87.5854 102.667 87.4036 102.996 87.0465C103.331 86.6895 103.492 86.235 103.492 85.6832V85.0405ZM104.518 88.2995H103.492V87.2932H103.467C103.022 88.0658 102.364 88.4488 101.5 88.4488C100.861 88.4488 100.365 88.28 100.004 87.9425C99.6425 87.6049 99.4619 87.1504 99.4619 86.5856C99.4619 85.3846 100.165 84.6769 101.577 84.4822L103.499 84.2095C103.499 83.1123 103.06 82.567 102.177 82.567C101.409 82.567 100.713 82.8331 100.087 83.359V82.3008C100.719 81.8983 101.442 81.697 102.261 81.697C103.763 81.697 104.518 82.4956 104.518 84.0991V88.293V88.2995Z" fill="#231F20"/>
    <path d="M110.812 88.0073C110.322 88.306 109.735 88.4553 109.064 88.4553C108.148 88.4553 107.413 88.1566 106.852 87.5594C106.291 86.9621 106.014 86.1895 106.014 85.2352C106.014 84.1705 106.317 83.32 106.923 82.6773C107.529 82.0346 108.335 81.71 109.342 81.71C109.903 81.71 110.399 81.8138 110.831 82.0216V83.0798C110.354 82.7422 109.845 82.5799 109.303 82.5799C108.651 82.5799 108.11 82.8136 107.691 83.2875C107.271 83.755 107.059 84.3782 107.059 85.1443C107.059 85.9104 107.259 86.4947 107.652 86.9296C108.045 87.3646 108.574 87.5853 109.238 87.5853C109.799 87.5853 110.322 87.3971 110.812 87.027V88.0073Z" fill="#231F20"/>
    <path d="M113.391 88.3059H112.366V81.8593H113.391V88.3059ZM112.888 80.2232C112.708 80.2232 112.546 80.1583 112.424 80.035C112.295 79.9116 112.23 79.7493 112.23 79.561C112.23 79.3728 112.295 79.204 112.424 79.0806C112.553 78.9508 112.708 78.8859 112.888 78.8859C113.069 78.8859 113.236 78.9508 113.365 79.0806C113.494 79.2105 113.559 79.3663 113.559 79.561C113.559 79.7558 113.494 79.9051 113.365 80.0285C113.23 80.1583 113.075 80.2232 112.888 80.2232Z" fill="#231F20"/>
    <path d="M119.718 78.5742L118.08 80.6387H117.286L118.679 78.5742H119.718ZM118.221 82.5799C117.564 82.5799 117.041 82.8071 116.661 83.2551C116.274 83.703 116.087 84.3262 116.087 85.1248C116.087 85.9233 116.28 86.4881 116.667 86.9296C117.054 87.3711 117.577 87.5918 118.221 87.5918C118.866 87.5918 119.395 87.3775 119.75 86.9426C120.105 86.5076 120.285 85.8973 120.285 85.0988C120.285 84.3003 120.111 83.6705 119.75 83.2356C119.395 82.7941 118.886 82.5799 118.221 82.5799ZM118.144 88.4617C117.196 88.4617 116.442 88.1631 115.874 87.5593C115.313 86.9556 115.029 86.157 115.029 85.1637C115.029 84.0795 115.326 83.2356 115.913 82.6253C116.5 82.015 117.293 81.7164 118.299 81.7164C119.305 81.7164 119.995 82.0086 120.537 82.6058C121.072 83.1966 121.336 84.0146 121.336 85.0664C121.336 86.1181 121.046 86.9166 120.472 87.5399C119.892 88.1566 119.118 88.4682 118.151 88.4682L118.144 88.4617Z" fill="#231F20"/>
    <path d="M128.288 88.306H127.263V84.6314C127.263 83.2616 126.766 82.5799 125.773 82.5799C125.263 82.5799 124.838 82.7747 124.502 83.1642C124.167 83.5537 123.999 84.0406 123.999 84.6314V88.306H122.974V81.8593H123.999V82.9305H124.025C124.509 82.119 125.205 81.71 126.128 81.71C126.831 81.71 127.366 81.9372 127.733 82.3916C128.107 82.8461 128.288 83.5018 128.288 84.3652V88.306Z" fill="#231F20"/>
    <path d="M139.967 87.9294C139.303 88.28 138.477 88.4553 137.49 88.4553C136.214 88.4553 135.195 88.0398 134.427 87.2153C133.66 86.3908 133.273 85.3001 133.273 83.9627C133.273 82.5215 133.705 81.3529 134.569 80.4635C135.433 79.5741 136.53 79.1261 137.852 79.1261C138.703 79.1261 139.406 79.2494 139.967 79.4961V80.6258C139.322 80.2622 138.613 80.0869 137.839 80.0869C136.807 80.0869 135.975 80.431 135.337 81.1257C134.698 81.8203 134.376 82.7422 134.376 83.9043C134.376 85.0664 134.672 85.8779 135.272 86.5336C135.872 87.1893 136.652 87.5139 137.626 87.5139C138.522 87.5139 139.303 87.3127 139.96 86.9102V87.9359L139.967 87.9294Z" fill="#231F20"/>
    <path d="M142.682 88.3059H141.656V81.8593H142.682V88.3059ZM142.179 80.2232C141.998 80.2232 141.837 80.1583 141.714 80.035C141.585 79.9116 141.521 79.7493 141.521 79.561C141.521 79.3728 141.585 79.204 141.714 79.0806C141.843 78.9508 141.998 78.8859 142.179 78.8859C142.359 78.8859 142.527 78.9508 142.656 79.0806C142.785 79.2105 142.849 79.3663 142.849 79.561C142.849 79.7558 142.785 79.9051 142.656 80.0285C142.521 80.1583 142.366 80.2232 142.179 80.2232Z" fill="#231F20"/>
    <path d="M149.788 81.8593L147.235 88.3059H146.229L143.804 81.8593H144.926L146.551 86.5466C146.674 86.8907 146.745 87.1893 146.777 87.449H146.803C146.848 87.1244 146.912 86.8322 147.003 86.5725L148.705 81.8657H149.788V81.8593Z" fill="#231F20"/>
    <path d="M151.916 88.3059H150.891V81.8593H151.916V88.3059ZM151.413 80.2232C151.233 80.2232 151.072 80.1583 150.949 80.035C150.82 79.9116 150.756 79.7493 150.756 79.561C150.756 79.3728 150.82 79.204 150.949 79.0806C151.078 78.9508 151.233 78.8859 151.413 78.8859C151.594 78.8859 151.762 78.9508 151.891 79.0806C152.02 79.2105 152.084 79.3663 152.084 79.561C152.084 79.7558 152.02 79.9051 151.891 80.0285C151.755 80.1583 151.6 80.2232 151.413 80.2232Z" fill="#231F20"/>
    <path d="M155.018 78.7625H153.993V88.3059H155.018V78.7625Z" fill="#231F20"/>
    <path d="M167.968 88.3059H166.678L162.06 81.1126C161.944 80.9309 161.848 80.7426 161.77 80.5478H161.732C161.764 80.7426 161.783 81.1516 161.783 81.7878V88.3059H160.732V79.2819H162.093L166.581 86.3648C166.768 86.6569 166.891 86.8582 166.942 86.9685H166.968C166.923 86.7089 166.903 86.2674 166.903 85.6377V79.2819H167.955V88.3059H167.968Z" fill="#231F20"/>
    <path d="M171.553 79.9116C171.282 79.9116 171.05 80.0089 170.857 80.2037C170.663 80.392 170.566 80.6322 170.566 80.9049C170.566 81.1775 170.663 81.4242 170.85 81.6255C171.037 81.8267 171.269 81.9241 171.54 81.9241C171.811 81.9241 172.043 81.8203 172.243 81.6255C172.437 81.4242 172.54 81.184 172.54 80.9049C172.54 80.6257 172.443 80.392 172.25 80.2037C172.056 80.0154 171.824 79.9181 171.553 79.9181M171.553 82.6642C171.076 82.6642 170.663 82.4954 170.328 82.1514C169.992 81.8073 169.818 81.3983 169.818 80.9114C169.818 80.4244 169.986 80.0219 170.321 79.6843C170.657 79.3532 171.063 79.1844 171.54 79.1844C172.017 79.1844 172.437 79.3532 172.778 79.6843C173.12 80.0219 173.288 80.4309 173.288 80.9049C173.288 81.3788 173.12 81.8073 172.778 82.1449C172.443 82.4889 172.03 82.6577 171.553 82.6577V82.6642Z" fill="#231F20"/>
    <path d="M183.483 88.306H178.079V87.3841L180.691 84.7483C181.355 84.0731 181.833 83.5148 182.116 83.0733C182.4 82.6254 182.548 82.1514 182.548 81.6386C182.548 81.1257 182.4 80.7167 182.103 80.431C181.807 80.1454 181.388 80.0025 180.839 80.0025C180.04 80.0025 179.272 80.3466 178.537 81.0348V79.9506C179.24 79.3988 180.053 79.1261 180.981 79.1261C181.781 79.1261 182.406 79.3468 182.871 79.7818C183.329 80.2168 183.561 80.8076 183.561 81.5412C183.561 82.119 183.4 82.6838 183.084 83.2356C182.768 83.7875 182.2 84.4756 181.375 85.2936L179.305 87.3516V87.3776H183.477V88.3125L183.483 88.306Z" fill="#231F20"/>
    <path d="M190.384 88.306H184.979V87.3841L187.591 84.7483C188.255 84.0731 188.733 83.5148 189.016 83.0733C189.3 82.6254 189.449 82.1514 189.449 81.6386C189.449 81.1257 189.3 80.7167 189.004 80.431C188.707 80.1454 188.288 80.0025 187.74 80.0025C186.94 80.0025 186.173 80.3466 185.437 81.0348V79.9506C186.14 79.3988 186.953 79.1261 187.881 79.1261C188.681 79.1261 189.307 79.3468 189.771 79.7818C190.229 80.2168 190.461 80.8076 190.461 81.5412C190.461 82.119 190.3 82.6838 189.984 83.2356C189.668 83.7875 189.1 84.4756 188.275 85.2936L186.205 87.3516V87.3776H190.377V88.3125L190.384 88.306Z" fill="#231F20"/>
    <path d="M192.105 87.9684V86.8518C192.718 87.3387 193.408 87.5854 194.182 87.5854C194.808 87.5854 195.304 87.4296 195.678 87.1114C196.052 86.7998 196.239 86.3713 196.239 85.839C196.239 84.6639 195.407 84.0731 193.743 84.0731H193.002V83.1967H193.711C195.188 83.1967 195.93 82.6449 195.93 81.5347C195.93 80.5089 195.362 79.9961 194.234 79.9961C193.602 79.9961 193.008 80.2103 192.454 80.6453V79.639C193.028 79.2949 193.711 79.1196 194.492 79.1196C195.272 79.1196 195.846 79.3209 196.304 79.7234C196.755 80.1259 196.981 80.6388 196.981 81.2685C196.981 82.4566 196.381 83.2227 195.182 83.5602V83.5862C195.826 83.6511 196.342 83.8784 196.723 84.2679C197.103 84.6639 197.297 85.1508 197.297 85.7351C197.297 86.5466 197.007 87.2023 196.433 87.6957C195.852 88.1956 195.091 88.4423 194.15 88.4423C193.298 88.4423 192.621 88.28 192.118 87.9619" fill="#231F20"/>
    <path d="M201.579 84.0601C200.437 84.5146 199.863 85.1833 199.863 86.0467C199.863 86.4947 200.031 86.8647 200.36 87.1504C200.689 87.4361 201.127 87.5854 201.669 87.5854C202.211 87.5854 202.611 87.4425 202.933 87.1569C203.262 86.8712 203.423 86.5142 203.423 86.0857C203.423 85.1768 202.804 84.5016 201.572 84.0601M203.126 81.3399C203.126 80.9244 202.997 80.5933 202.74 80.3596C202.482 80.1194 202.127 80.0026 201.682 80.0026C201.263 80.0026 200.915 80.1259 200.624 80.3791C200.334 80.6258 200.192 80.9439 200.192 81.3334C200.192 82.119 200.676 82.7098 201.65 83.1058C202.636 82.6968 203.133 82.106 203.133 81.3464L203.126 81.3399ZM200.747 83.5667V83.5408C199.67 83.0409 199.135 82.3073 199.135 81.3529C199.135 80.7037 199.38 80.1649 199.87 79.7494C200.36 79.3339 200.992 79.1196 201.772 79.1196C202.475 79.1196 203.049 79.3144 203.494 79.7039C203.945 80.0934 204.171 80.5933 204.171 81.2101C204.171 82.2099 203.617 82.9824 202.507 83.5408V83.5667C203.816 84.0342 204.468 84.8522 204.468 86.0078C204.468 86.7544 204.203 87.3517 203.668 87.7866C203.133 88.2281 202.391 88.4488 201.443 88.4488C200.676 88.4488 200.044 88.2346 199.547 87.7931C199.051 87.3516 198.799 86.7868 198.799 86.0922C198.799 84.9301 199.444 84.0926 200.734 83.5602L200.747 83.5667Z" fill="#231F20"/>
    <path d="M210.175 79.2754L205.874 89.7991H204.913L209.208 79.2754H210.175Z" fill="#231F20"/>
    <path d="M216.082 88.306H210.678V87.3841L213.29 84.7483C213.954 84.0731 214.431 83.5148 214.715 83.0733C214.999 82.6254 215.141 82.1514 215.141 81.6386C215.141 81.1257 214.992 80.7167 214.696 80.431C214.399 80.1454 213.98 80.0025 213.432 80.0025C212.632 80.0025 211.865 80.3466 211.13 81.0348V79.9506C211.833 79.3988 212.645 79.1261 213.574 79.1261C214.373 79.1261 214.999 79.3468 215.463 79.7818C215.921 80.2168 216.153 80.8076 216.153 81.5412C216.153 82.119 215.992 82.6838 215.676 83.2356C215.36 83.7875 214.793 84.4756 213.967 85.2936L211.897 87.3516V87.3776H216.069V88.3125L216.082 88.306Z" fill="#231F20"/>
    <path d="M220.493 80.0025C219.21 80.0025 218.571 81.3074 218.571 83.9238C218.571 86.3648 219.197 87.5853 220.454 87.5853C221.712 87.5853 222.312 86.3453 222.312 83.8588C222.312 81.3724 221.706 80.0025 220.493 80.0025ZM220.345 88.4553C219.455 88.4553 218.765 88.0722 218.268 87.3062C217.772 86.5401 217.52 85.4299 217.52 83.9757C217.52 82.3786 217.778 81.1776 218.301 80.3596C218.816 79.5416 219.571 79.1326 220.545 79.1326C222.421 79.1326 223.356 80.6777 223.356 83.7615C223.356 85.2871 223.092 86.4557 222.563 87.2542C222.034 88.0592 221.293 88.4618 220.345 88.4618V88.4553Z" fill="#231F20"/>
    <path d="M229.889 88.306H224.485V87.3841L227.097 84.7483C227.761 84.0731 228.238 83.5148 228.522 83.0733C228.806 82.6254 228.954 82.1514 228.954 81.6386C228.954 81.1257 228.806 80.7167 228.509 80.431C228.213 80.1454 227.793 80.0025 227.245 80.0025C226.446 80.0025 225.678 80.3466 224.943 81.0348V79.9506C225.646 79.3988 226.458 79.1261 227.387 79.1261C228.187 79.1261 228.812 79.3468 229.277 79.7818C229.734 80.2168 229.967 80.8076 229.967 81.5412C229.967 82.119 229.805 82.6838 229.489 83.2356C229.173 83.7875 228.606 84.4756 227.78 85.2936L225.71 87.3516V87.3776H229.883V88.3125L229.889 88.306Z" fill="#231F20"/>
    <path d="M234.294 80.0025C233.01 80.0025 232.372 81.3074 232.372 83.9238C232.372 86.3648 232.997 87.5853 234.255 87.5853C235.513 87.5853 236.112 86.3453 236.112 83.8588C236.112 81.3724 235.506 80.0025 234.294 80.0025ZM234.145 88.4553C233.255 88.4553 232.565 88.0722 232.069 87.3062C231.572 86.5401 231.321 85.4299 231.321 83.9757C231.321 82.3786 231.579 81.1776 232.101 80.3596C232.617 79.5416 233.372 79.1326 234.345 79.1326C236.222 79.1326 237.157 80.6777 237.157 83.7615C237.157 85.2871 236.893 86.4557 236.364 87.2542C235.835 88.0592 235.093 88.4618 234.145 88.4618V88.4553Z" fill="#231F20"/>
    <path d="M74.3437 84.8261L72.9378 80.9828C72.8927 80.853 72.8476 80.6517 72.8024 80.379H72.7766C72.7379 80.6322 72.6863 80.8335 72.6347 80.9828L71.2418 84.8261H74.3501H74.3437ZM76.8007 88.3059H75.6399L74.6919 85.774H70.8871L69.9907 88.3059H68.8235L72.2607 79.2819H73.3506L76.8007 88.3059V88.3059Z" stroke="#231F20" stroke-width="0.28" stroke-miterlimit="22.93"/>
    <path d="M77.5939 88.0723V86.9621C78.1485 87.3776 78.7675 87.5853 79.4382 87.5853C80.341 87.5853 80.7925 87.2802 80.7925 86.6764C80.7925 86.5076 80.7538 86.3583 80.6764 86.2415C80.599 86.1181 80.4958 86.0142 80.3604 85.9234C80.2314 85.8325 80.0766 85.7481 79.8961 85.6767C79.722 85.6052 79.5285 85.5273 79.3221 85.4494C79.0384 85.3326 78.7933 85.2222 78.5741 85.1053C78.3613 84.9885 78.1807 84.8586 78.0388 84.7158C77.8969 84.5665 77.7873 84.4042 77.7164 84.2224C77.6454 84.0406 77.6067 83.8199 77.6067 83.5732C77.6067 83.2681 77.6777 83.0019 77.8131 82.7682C77.955 82.5345 78.1355 82.3397 78.3613 82.1839C78.5934 82.0281 78.8514 81.9047 79.148 81.8268C79.4382 81.7489 79.7478 81.71 80.0573 81.71C80.6119 81.71 81.1085 81.8073 81.547 81.9956V83.0408C81.0762 82.7292 80.5345 82.5734 79.9219 82.5734C79.7284 82.5734 79.5543 82.5929 79.3995 82.6383C79.2447 82.6838 79.1158 82.7422 78.9997 82.8201C78.8901 82.898 78.8062 82.9954 78.7417 83.1058C78.6837 83.2161 78.6515 83.3395 78.6515 83.4758C78.6515 83.6446 78.6837 83.7809 78.7417 83.8978C78.8062 84.0147 78.8901 84.112 79.0061 84.2029C79.1222 84.2938 79.2641 84.3717 79.4318 84.4432C79.5994 84.5146 79.7864 84.5925 79.9993 84.6769C80.283 84.7872 80.5345 84.8976 80.7602 85.0145C80.9859 85.1313 81.1794 85.2612 81.3342 85.404C81.4889 85.5468 81.6115 85.7156 81.7017 85.9039C81.7856 86.0922 81.8307 86.3194 81.8307 86.5791C81.8307 86.8972 81.7598 87.1763 81.6244 87.4101C81.4825 87.6438 81.2955 87.8385 81.0633 87.9943C80.8312 88.1502 80.5603 88.267 80.2572 88.3449C79.9541 88.4228 79.6317 88.4553 79.2963 88.4553C78.6386 88.4553 78.0646 88.3254 77.5874 88.0723H77.5939Z" stroke="#231F20" stroke-width="0.28" stroke-miterlimit="22.93"/>
    <path d="M86.1645 82.5734C85.5067 82.5734 84.9843 82.8006 84.6039 83.2486C84.2169 83.6965 84.0299 84.3198 84.0299 85.1183C84.0299 85.9169 84.2234 86.4817 84.6103 86.9231C84.9972 87.3646 85.5196 87.5853 86.1645 87.5853C86.8094 87.5853 87.3382 87.3711 87.6928 86.9361C88.0475 86.5012 88.2281 85.8909 88.2281 85.0924C88.2281 84.2938 88.054 83.6641 87.6928 83.2291C87.3382 82.7877 86.8287 82.5734 86.1645 82.5734V82.5734ZM86.0871 88.4553C85.1391 88.4553 84.3846 88.1566 83.8236 87.5529C83.2625 86.9491 82.9788 86.1506 82.9788 85.1573C82.9788 84.0731 83.2754 83.2291 83.8622 82.6189C84.4491 82.0086 85.2423 81.71 86.2483 81.71C87.2543 81.71 87.9443 82.0021 88.4796 82.5994C89.0149 83.1902 89.2793 84.0082 89.2793 85.0599C89.2793 86.1116 88.9891 86.9102 88.4151 87.5334C87.8347 88.1502 87.0609 88.4618 86.0935 88.4618L86.0871 88.4553Z" stroke="#231F20" stroke-width="0.28" stroke-miterlimit="22.93"/>
    <path d="M95.283 88.0073C94.7929 88.306 94.2061 88.4553 93.5354 88.4553C92.6197 88.4553 91.8845 88.1566 91.3235 87.5594C90.7624 86.9621 90.4851 86.1895 90.4851 85.2352C90.4851 84.1705 90.7882 83.32 91.3944 82.6773C92.0006 82.0346 92.8067 81.71 93.8127 81.71C94.3737 81.71 94.8703 81.8138 95.3024 82.0216V83.0798C94.8252 82.7422 94.3157 82.5799 93.774 82.5799C93.1227 82.5799 92.581 82.8136 92.1618 83.2875C91.7426 83.755 91.5298 84.3782 91.5298 85.1443C91.5298 85.9104 91.7297 86.4947 92.1231 86.9296C92.5165 87.3646 93.0453 87.5853 93.7095 87.5853C94.2706 87.5853 94.7929 87.3971 95.283 87.027V88.0073V88.0073Z" stroke="#231F20" stroke-width="0.28" stroke-miterlimit="22.93"/>
    <path d="M97.8561 88.3059H96.8307V81.8593H97.8561V88.3059ZM97.3531 80.2232C97.1725 80.2232 97.0113 80.1583 96.8888 80.035C96.7598 79.9116 96.6953 79.7493 96.6953 79.561C96.6953 79.3728 96.7598 79.204 96.8888 79.0806C97.0177 78.9508 97.1725 78.8859 97.3531 78.8859C97.5337 78.8859 97.7013 78.9508 97.8303 79.0806C97.9593 79.2105 98.0238 79.3663 98.0238 79.561C98.0238 79.7558 97.9593 79.9051 97.8303 80.0285C97.6949 80.1583 97.5401 80.2232 97.3531 80.2232V80.2232Z" stroke="#231F20" stroke-width="0.28" stroke-miterlimit="22.93"/>
    <path d="M103.492 85.0405L101.951 85.2547C101.474 85.3196 101.119 85.4365 100.874 85.6118C100.636 85.7806 100.513 86.0792 100.513 86.5142C100.513 86.8258 100.623 87.0855 100.848 87.2867C101.068 87.488 101.364 87.5854 101.738 87.5854C102.248 87.5854 102.667 87.4036 102.996 87.0465C103.331 86.6895 103.492 86.235 103.492 85.6832V85.0405V85.0405ZM104.518 88.2995H103.492V87.2932H103.467C103.022 88.0658 102.364 88.4488 101.5 88.4488C100.861 88.4488 100.365 88.28 100.004 87.9425C99.6425 87.6049 99.4619 87.1504 99.4619 86.5856C99.4619 85.3846 100.165 84.6769 101.577 84.4822L103.499 84.2095C103.499 83.1123 103.06 82.567 102.177 82.567C101.409 82.567 100.713 82.8331 100.087 83.359V82.3008C100.719 81.8983 101.442 81.697 102.261 81.697C103.763 81.697 104.518 82.4956 104.518 84.0991V88.293V88.2995Z" stroke="#231F20" stroke-width="0.28" stroke-miterlimit="22.93"/>
    <path d="M110.812 88.0073C110.322 88.306 109.735 88.4553 109.064 88.4553C108.148 88.4553 107.413 88.1566 106.852 87.5594C106.291 86.9621 106.014 86.1895 106.014 85.2352C106.014 84.1705 106.317 83.32 106.923 82.6773C107.529 82.0346 108.335 81.71 109.342 81.71C109.903 81.71 110.399 81.8138 110.831 82.0216V83.0798C110.354 82.7422 109.845 82.5799 109.303 82.5799C108.651 82.5799 108.11 82.8136 107.691 83.2875C107.271 83.755 107.059 84.3782 107.059 85.1443C107.059 85.9104 107.259 86.4947 107.652 86.9296C108.045 87.3646 108.574 87.5853 109.238 87.5853C109.799 87.5853 110.322 87.3971 110.812 87.027V88.0073V88.0073Z" stroke="#231F20" stroke-width="0.28" stroke-miterlimit="22.93"/>
    <path d="M113.391 88.3059H112.366V81.8593H113.391V88.3059ZM112.888 80.2232C112.708 80.2232 112.546 80.1583 112.424 80.035C112.295 79.9116 112.23 79.7493 112.23 79.561C112.23 79.3728 112.295 79.204 112.424 79.0806C112.553 78.9508 112.708 78.8859 112.888 78.8859C113.069 78.8859 113.236 78.9508 113.365 79.0806C113.494 79.2105 113.559 79.3663 113.559 79.561C113.559 79.7558 113.494 79.9051 113.365 80.0285C113.23 80.1583 113.075 80.2232 112.888 80.2232V80.2232Z" stroke="#231F20" stroke-width="0.28" stroke-miterlimit="22.93"/>
    <path d="M119.718 78.5742L118.08 80.6387H117.286L118.679 78.5742H119.718V78.5742ZM118.221 82.5799C117.564 82.5799 117.041 82.8071 116.661 83.2551C116.274 83.703 116.087 84.3262 116.087 85.1248C116.087 85.9233 116.28 86.4881 116.667 86.9296C117.054 87.3711 117.577 87.5918 118.221 87.5918C118.866 87.5918 119.395 87.3775 119.75 86.9426C120.105 86.5076 120.285 85.8973 120.285 85.0988C120.285 84.3003 120.111 83.6705 119.75 83.2356C119.395 82.7941 118.886 82.5799 118.221 82.5799V82.5799ZM118.144 88.4617C117.196 88.4617 116.442 88.1631 115.874 87.5593C115.313 86.9556 115.029 86.157 115.029 85.1637C115.029 84.0795 115.326 83.2356 115.913 82.6253C116.5 82.015 117.293 81.7164 118.299 81.7164C119.305 81.7164 119.995 82.0086 120.537 82.6058C121.072 83.1966 121.336 84.0146 121.336 85.0664C121.336 86.1181 121.046 86.9166 120.472 87.5399C119.892 88.1566 119.118 88.4682 118.151 88.4682L118.144 88.4617Z" stroke="#231F20" stroke-width="0.28" stroke-miterlimit="22.93"/>
    <path d="M128.288 88.306H127.263V84.6314C127.263 83.2616 126.766 82.5799 125.773 82.5799C125.263 82.5799 124.838 82.7747 124.502 83.1642C124.167 83.5537 123.999 84.0406 123.999 84.6314V88.306H122.974V81.8593H123.999V82.9305H124.025C124.509 82.119 125.205 81.71 126.128 81.71C126.831 81.71 127.366 81.9372 127.733 82.3916C128.107 82.8461 128.288 83.5018 128.288 84.3652V88.306Z" stroke="#231F20" stroke-width="0.28" stroke-miterlimit="22.93"/>
    <path d="M139.967 87.9294C139.303 88.28 138.477 88.4553 137.49 88.4553C136.214 88.4553 135.195 88.0398 134.427 87.2153C133.66 86.3908 133.273 85.3001 133.273 83.9627C133.273 82.5215 133.705 81.3529 134.569 80.4635C135.433 79.5741 136.53 79.1261 137.852 79.1261C138.703 79.1261 139.406 79.2494 139.967 79.4961V80.6258C139.322 80.2622 138.613 80.0869 137.839 80.0869C136.807 80.0869 135.975 80.431 135.337 81.1257C134.698 81.8203 134.376 82.7422 134.376 83.9043C134.376 85.0664 134.672 85.8779 135.272 86.5336C135.872 87.1893 136.652 87.5139 137.626 87.5139C138.522 87.5139 139.303 87.3127 139.96 86.9102V87.9359L139.967 87.9294Z" stroke="#231F20" stroke-width="0.28" stroke-miterlimit="22.93"/>
    <path d="M142.682 88.3059H141.656V81.8593H142.682V88.3059ZM142.179 80.2232C141.998 80.2232 141.837 80.1583 141.714 80.035C141.585 79.9116 141.521 79.7493 141.521 79.561C141.521 79.3728 141.585 79.204 141.714 79.0806C141.843 78.9508 141.998 78.8859 142.179 78.8859C142.359 78.8859 142.527 78.9508 142.656 79.0806C142.785 79.2105 142.849 79.3663 142.849 79.561C142.849 79.7558 142.785 79.9051 142.656 80.0285C142.521 80.1583 142.366 80.2232 142.179 80.2232V80.2232Z" stroke="#231F20" stroke-width="0.28" stroke-miterlimit="22.93"/>
    <path d="M149.788 81.8593L147.235 88.3059H146.229L143.804 81.8593H144.926L146.551 86.5466C146.674 86.8907 146.745 87.1893 146.777 87.449H146.803C146.848 87.1244 146.912 86.8322 147.003 86.5725L148.705 81.8657H149.788V81.8593Z" stroke="#231F20" stroke-width="0.28" stroke-miterlimit="22.93"/>
    <path d="M151.916 88.3059H150.891V81.8593H151.916V88.3059ZM151.413 80.2232C151.233 80.2232 151.072 80.1583 150.949 80.035C150.82 79.9116 150.756 79.7493 150.756 79.561C150.756 79.3728 150.82 79.204 150.949 79.0806C151.078 78.9508 151.233 78.8859 151.413 78.8859C151.594 78.8859 151.762 78.9508 151.891 79.0806C152.02 79.2105 152.084 79.3663 152.084 79.561C152.084 79.7558 152.02 79.9051 151.891 80.0285C151.755 80.1583 151.6 80.2232 151.413 80.2232V80.2232Z" stroke="#231F20" stroke-width="0.28" stroke-miterlimit="22.93"/>
    <path d="M155.018 78.7625H153.993V88.3059H155.018V78.7625Z" stroke="#231F20" stroke-width="0.28" stroke-miterlimit="22.93"/>
    <path d="M167.968 88.3059H166.678L162.06 81.1126C161.944 80.9309 161.848 80.7426 161.77 80.5478H161.732C161.764 80.7426 161.783 81.1516 161.783 81.7878V88.3059H160.732V79.2819H162.093L166.581 86.3648C166.768 86.6569 166.891 86.8582 166.942 86.9685H166.968C166.923 86.7089 166.903 86.2674 166.903 85.6377V79.2819H167.955V88.3059H167.968Z" stroke="#231F20" stroke-width="0.28" stroke-miterlimit="22.93"/>
    <path d="M171.553 79.9116C171.282 79.9116 171.05 80.009 170.857 80.2037C170.663 80.392 170.566 80.6322 170.566 80.9049C170.566 81.1776 170.663 81.4243 170.85 81.6255C171.037 81.8268 171.269 81.9242 171.54 81.9242C171.811 81.9242 172.043 81.8203 172.243 81.6255C172.437 81.4243 172.54 81.184 172.54 80.9049C172.54 80.6257 172.443 80.392 172.25 80.2037C172.056 80.0155 171.824 79.9181 171.553 79.9181V79.9116ZM171.553 82.6578C171.076 82.6578 170.663 82.489 170.328 82.1449C169.992 81.8008 169.818 81.3918 169.818 80.9049C169.818 80.418 169.986 80.0155 170.321 79.6779C170.657 79.3468 171.063 79.178 171.54 79.178C172.017 79.178 172.437 79.3468 172.778 79.6779C173.12 80.0155 173.288 80.4245 173.288 80.8984C173.288 81.3723 173.12 81.8008 172.778 82.1384C172.443 82.4825 172.03 82.6513 171.553 82.6513V82.6578Z" stroke="#231F20" stroke-width="0.28" stroke-miterlimit="22.93"/>
    <path d="M183.483 88.306H178.079V87.3841L180.691 84.7483C181.355 84.0731 181.833 83.5148 182.116 83.0733C182.4 82.6254 182.548 82.1514 182.548 81.6386C182.548 81.1257 182.4 80.7167 182.103 80.431C181.807 80.1454 181.388 80.0025 180.839 80.0025C180.04 80.0025 179.272 80.3466 178.537 81.0348V79.9506C179.24 79.3988 180.053 79.1261 180.981 79.1261C181.781 79.1261 182.406 79.3468 182.871 79.7818C183.329 80.2168 183.561 80.8076 183.561 81.5412C183.561 82.119 183.4 82.6838 183.084 83.2356C182.768 83.7875 182.2 84.4756 181.375 85.2936L179.305 87.3516V87.3776H183.477V88.3125L183.483 88.306Z" stroke="#231F20" stroke-width="0.28" stroke-miterlimit="22.93"/>
    <path d="M190.384 88.306H184.979V87.3841L187.591 84.7483C188.255 84.0731 188.733 83.5148 189.016 83.0733C189.3 82.6254 189.449 82.1514 189.449 81.6386C189.449 81.1257 189.3 80.7167 189.004 80.431C188.707 80.1454 188.288 80.0025 187.74 80.0025C186.94 80.0025 186.173 80.3466 185.437 81.0348V79.9506C186.14 79.3988 186.953 79.1261 187.881 79.1261C188.681 79.1261 189.307 79.3468 189.771 79.7818C190.229 80.2168 190.461 80.8076 190.461 81.5412C190.461 82.119 190.3 82.6838 189.984 83.2356C189.668 83.7875 189.1 84.4756 188.275 85.2936L186.205 87.3516V87.3776H190.377V88.3125L190.384 88.306Z" stroke="#231F20" stroke-width="0.28" stroke-miterlimit="22.93"/>
    <path d="M192.105 87.9684V86.8518C192.718 87.3387 193.408 87.5854 194.182 87.5854C194.808 87.5854 195.304 87.4296 195.678 87.1114C196.052 86.7998 196.239 86.3713 196.239 85.839C196.239 84.6639 195.407 84.0731 193.743 84.0731H193.002V83.1967H193.711C195.188 83.1967 195.93 82.6449 195.93 81.5347C195.93 80.5089 195.362 79.9961 194.234 79.9961C193.602 79.9961 193.008 80.2103 192.454 80.6453V79.639C193.028 79.2949 193.711 79.1196 194.492 79.1196C195.272 79.1196 195.846 79.3209 196.304 79.7234C196.755 80.1259 196.981 80.6388 196.981 81.2685C196.981 82.4566 196.381 83.2227 195.182 83.5602V83.5862C195.826 83.6511 196.342 83.8784 196.723 84.2679C197.103 84.6639 197.297 85.1508 197.297 85.7351C197.297 86.5466 197.007 87.2023 196.433 87.6957C195.852 88.1956 195.091 88.4423 194.15 88.4423C193.298 88.4423 192.621 88.28 192.118 87.9619L192.105 87.9684Z" stroke="#231F20" stroke-width="0.28" stroke-miterlimit="22.93"/>
    <path d="M201.579 84.0601C200.437 84.5146 199.864 85.1833 199.864 86.0467C199.864 86.4947 200.031 86.8647 200.36 87.1504C200.689 87.4361 201.127 87.5854 201.669 87.5854C202.211 87.5854 202.611 87.4425 202.933 87.1569C203.262 86.8712 203.423 86.5142 203.423 86.0857C203.423 85.1768 202.804 84.5016 201.572 84.0601H201.579ZM203.133 81.3399C203.133 80.9244 203.004 80.5933 202.746 80.3596C202.488 80.1194 202.133 80.0026 201.689 80.0026C201.269 80.0026 200.921 80.1259 200.631 80.3791C200.341 80.6258 200.199 80.9439 200.199 81.3334C200.199 82.119 200.683 82.7098 201.656 83.1058C202.643 82.6968 203.14 82.106 203.14 81.3464L203.133 81.3399ZM200.753 83.5667V83.5408C199.677 83.0409 199.141 82.3073 199.141 81.3529C199.141 80.7037 199.386 80.1649 199.876 79.7494C200.367 79.3339 200.999 79.1196 201.779 79.1196C202.482 79.1196 203.056 79.3144 203.501 79.7039C203.952 80.0934 204.178 80.5933 204.178 81.2101C204.178 82.2099 203.623 82.9824 202.514 83.5408V83.5667C203.823 84.0342 204.474 84.8522 204.474 86.0078C204.474 86.7544 204.21 87.3517 203.675 87.7866C203.14 88.2281 202.398 88.4488 201.45 88.4488C200.683 88.4488 200.051 88.2346 199.554 87.7931C199.057 87.3516 198.806 86.7868 198.806 86.0922C198.806 84.9301 199.451 84.0926 200.741 83.5602L200.753 83.5667Z" stroke="#231F20" stroke-width="0.28" stroke-miterlimit="22.93"/>
    <path d="M210.175 79.2754L205.874 89.7991H204.913L209.208 79.2754H210.175Z" stroke="#231F20" stroke-width="0.28" stroke-miterlimit="22.93"/>
    <path d="M216.082 88.306H210.678V87.3841L213.29 84.7483C213.954 84.0731 214.431 83.5148 214.715 83.0733C214.999 82.6254 215.141 82.1514 215.141 81.6386C215.141 81.1257 214.992 80.7167 214.696 80.431C214.399 80.1454 213.98 80.0025 213.432 80.0025C212.632 80.0025 211.865 80.3466 211.13 81.0348V79.9506C211.833 79.3988 212.645 79.1261 213.574 79.1261C214.373 79.1261 214.999 79.3468 215.463 79.7818C215.921 80.2168 216.153 80.8076 216.153 81.5412C216.153 82.119 215.992 82.6838 215.676 83.2356C215.36 83.7875 214.793 84.4756 213.967 85.2936L211.897 87.3516V87.3776H216.069V88.3125L216.082 88.306Z" stroke="#231F20" stroke-width="0.28" stroke-miterlimit="22.93"/>
    <path d="M220.493 80.0025C219.21 80.0025 218.571 81.3074 218.571 83.9238C218.571 86.3648 219.197 87.5853 220.454 87.5853C221.712 87.5853 222.312 86.3453 222.312 83.8588C222.312 81.3724 221.706 80.0025 220.493 80.0025V80.0025ZM220.345 88.4553C219.455 88.4553 218.765 88.0722 218.268 87.3062C217.772 86.5401 217.52 85.4299 217.52 83.9757C217.52 82.3786 217.778 81.1776 218.301 80.3596C218.816 79.5416 219.571 79.1326 220.545 79.1326C222.421 79.1326 223.356 80.6777 223.356 83.7615C223.356 85.2871 223.092 86.4557 222.563 87.2542C222.034 88.0592 221.293 88.4618 220.345 88.4618V88.4553Z" stroke="#231F20" stroke-width="0.28" stroke-miterlimit="22.93"/>
    <path d="M229.889 88.306H224.485V87.3841L227.097 84.7483C227.761 84.0731 228.238 83.5148 228.522 83.0733C228.806 82.6254 228.954 82.1514 228.954 81.6386C228.954 81.1257 228.806 80.7167 228.509 80.431C228.213 80.1454 227.793 80.0025 227.245 80.0025C226.446 80.0025 225.678 80.3466 224.943 81.0348V79.9506C225.646 79.3988 226.458 79.1261 227.387 79.1261C228.187 79.1261 228.812 79.3468 229.277 79.7818C229.734 80.2168 229.967 80.8076 229.967 81.5412C229.967 82.119 229.805 82.6838 229.489 83.2356C229.173 83.7875 228.606 84.4756 227.78 85.2936L225.71 87.3516V87.3776H229.883V88.3125L229.889 88.306Z" stroke="#231F20" stroke-width="0.28" stroke-miterlimit="22.93"/>
    <path d="M234.294 80.0025C233.01 80.0025 232.372 81.3074 232.372 83.9238C232.372 86.3648 232.997 87.5853 234.255 87.5853C235.513 87.5853 236.112 86.3453 236.112 83.8588C236.112 81.3724 235.506 80.0025 234.294 80.0025V80.0025ZM234.145 88.4553C233.255 88.4553 232.565 88.0722 232.069 87.3062C231.572 86.5401 231.321 85.4299 231.321 83.9757C231.321 82.3786 231.579 81.1776 232.101 80.3596C232.617 79.5416 233.372 79.1326 234.345 79.1326C236.222 79.1326 237.157 80.6777 237.157 83.7615C237.157 85.2871 236.893 86.4557 236.364 87.2542C235.835 88.0592 235.093 88.4618 234.145 88.4618V88.4553Z" stroke="#231F20" stroke-width="0.28" stroke-miterlimit="22.93"/>
    </g>
    <defs>
    <filter id="filter0_d_16_215" x="0" y="0" width="261" height="100" filterUnits="userSpaceOnUse" color-interpolation-filters="sRGB">
    <feFlood flood-opacity="0" result="BackgroundImageFix"/>
    <feColorMatrix in="SourceAlpha" type="matrix" values="0 0 0 0 0 0 0 0 0 0 0 0 0 0 0 0 0 0 127 0" result="hardAlpha"/>
    <feOffset dy="4"/>
    <feGaussianBlur stdDeviation="2"/>
    <feComposite in2="hardAlpha" operator="out"/>
    <feColorMatrix type="matrix" values="0 0 0 0 0 0 0 0 0 0 0 0 0 0 0 0 0 0 0.25 0"/>
    <feBlend mode="normal" in2="BackgroundImageFix" result="effect1_dropShadow_16_215"/>
    <feBlend mode="normal" in="SourceGraphic" in2="effect1_dropShadow_16_215" result="shape"/>
    </filter>
    <clipPath id="clip0_16_215">
    <rect width="253" height="92" fill="white" transform="translate(4)"/>
    </clipPath>
    </defs>
    </svg>
    