<?xml version="1.0" encoding="utf-8"?>
<!-- Generator: Adobe Illustrator 26.3.1, SVG Export Plug-In . SVG Version: 6.00 Build 0)  -->
<svg version="1.1" id="Capa_1" xmlns="http://www.w3.org/2000/svg" xmlns:xlink="http://www.w3.org/1999/xlink" x="0px" y="0px"
	 viewBox="0 0 261 100" style="enable-background:new 0 0 261 100;" xml:space="preserve">
<style type="text/css">
	.st0{fill-rule:evenodd;clip-rule:evenodd;fill:#FFCA05;}
	.st1{fill:#F48120;}
	.st2{fill:#FFCA05;}
	.st3{fill:#231F20;}
	.st4{fill:none;stroke:#231F20;stroke-width:0.28;stroke-miterlimit:22.93;}
</style>
<path class="st0" d="M34.8,66.9c-1.1-6.8-3.3-13.6-6.2-19.8c-2.4-5.1-5.4-9.5-9.4-13.4c-0.8-0.8-4.8-5-1.5-4.1
	c2.3,0.6,3.6,2.9,5.8,3.7c4.2,1.5,6.2-2.6,5.4-6.3c-0.4-1.8-2.3-5.9-0.4-7.5c1.6-1.3,4,3,4.5,3.9c1,1.9,1.9,8.5,5.2,5.2
	c1.2-1.2,1.9-2.9,3.3-4c1.4-1.1,2.1,1.1,2.2,2.1c0.1,1.9-0.6,3.8-1,5.6c-0.3,1,1.3,1.4,1.6,0.4c0.6-2.2,2.9-10.2-2-10
	c-1.4,0.1-2.3,1.1-3.1,2.1c-0.5,0.7-1,1.4-1.5,2.1c-1.2,1.6-1.5,0.1-1.9-1.3c-0.8-2.6-3.3-8.6-7-7.9c-3.8,0.7-2,6.6-1.4,8.9
	c0.5,1.6,0.5,4-1,5.1c-1.6,1.2-3.8-1-4.9-1.9c-1.2-1-2.7-1.8-4.2-2c-3.7-0.5-2.1,3.4-0.8,5c1.9,2.4,4.2,4.2,6,6.7
	c1.8,2.4,3.3,5.1,4.6,7.8C29.2,52,30.8,57,32.1,62c0.4,1.4,0.9,4.1,1.1,5C33.3,68,34.9,67.9,34.8,66.9"/>
<path class="st1" d="M64.8,57.7h-7.1v5h6.5v3.7h-6.5v7.9h-4.5V53.9h11.6V57.7z"/>
<path class="st1" d="M83.8,65.4c0,6.1-2.8,9.1-8.4,9.1s-8.2-3-8.2-8.9V53.9h4.5v11.8c0,3.3,1.3,4.9,3.8,4.9c2.5,0,3.7-1.6,3.7-4.8
	V53.9h4.5L83.8,65.4L83.8,65.4z"/>
<path class="st1" d="M98.4,74.2H86.3V53.9H98v3.7h-7.1v4.5h6.6v3.7h-6.6v4.6h7.5V74.2z"/>
<path class="st1" d="M106.2,57.4V63h2c1,0,1.8-0.3,2.3-0.9c0.6-0.6,0.9-1.3,0.9-2.1c0-1.8-1.1-2.7-3.2-2.7H106.2z M118.5,74.2h-5.2
	l-3.1-5.2c-0.2-0.4-0.5-0.7-0.7-1.1c-0.2-0.3-0.4-0.6-0.7-0.8c-0.2-0.2-0.5-0.4-0.7-0.5c-0.2-0.1-0.5-0.2-0.8-0.2h-1.2v7.8h-4.5
	V53.9h7.2c4.9,0,7.3,1.8,7.3,5.5c0,0.7-0.1,1.4-0.3,2c-0.2,0.6-0.5,1.1-0.9,1.6c-0.4,0.5-0.9,0.9-1.4,1.2c-0.6,0.4-1.2,0.6-1.9,0.8
	v0.1c0.3,0.1,0.6,0.2,0.9,0.5c0.3,0.2,0.5,0.5,0.8,0.7c0.3,0.3,0.5,0.6,0.8,0.9c0.2,0.3,0.5,0.6,0.7,1L118.5,74.2L118.5,74.2z"/>
<path class="st1" d="M135.5,74.2h-16.2v-2.6l10.3-13.9h-9.6v-3.7h15.4v2.6l-10.1,14h10.1V74.2z"/>
<path class="st1" d="M148.8,66.2l-2.2-6.8c-0.2-0.5-0.3-1.1-0.3-1.8h-0.1c0,0.6-0.2,1.2-0.3,1.8l-2.2,6.9H148.8z M156.2,74.2h-4.9
	l-1.4-4.5h-7.2l-1.4,4.5h-4.9l7.3-20.3h5.4L156.2,74.2L156.2,74.2z"/>
<path class="st2" d="M170.8,66.2l-2.2-6.8c-0.2-0.5-0.3-1.1-0.3-1.8h-0.1c0,0.6-0.2,1.2-0.3,1.8l-2.2,6.9H170.8z M178.3,74.2h-4.9
	l-1.4-4.5h-7.2l-1.4,4.5h-4.9l7.3-20.3h5.4L178.3,74.2L178.3,74.2z"/>
<path class="st2" d="M193.4,73.5c-1.5,0.7-3.4,1.1-5.8,1.1c-3.1,0-5.5-0.9-7.3-2.7c-1.8-1.8-2.7-4.3-2.7-7.3c0-3.2,1-5.9,3-7.9
	c2-2,4.6-3,7.7-3c2,0,3.6,0.3,5,0.8v4.4c-1.3-0.8-2.9-1.2-4.6-1.2c-1.9,0-3.4,0.6-4.6,1.8c-1.2,1.2-1.7,2.8-1.7,4.9
	c0,2,0.5,3.5,1.6,4.7c1.1,1.2,2.6,1.7,4.4,1.7c1.9,0,3.4-0.4,4.8-1.3V73.5z"/>
<path class="st2" d="M211,57.7h-5.7v16.5h-4.5V57.7H195v-3.7h16V57.7z"/>
<path class="st2" d="M219.9,53.9v3.5h-1.7v13.2h1.7v3.5H212v-3.5h1.7V57.5H212v-3.5H219.9z"/>
<path class="st2" d="M239.6,53.9l-6.9,20.3h-5.1l-6.8-20.3h4.9l4.2,14.1c0.2,0.8,0.4,1.4,0.4,2h0.1c0.1-0.6,0.2-1.3,0.4-2.1l4.2-14
	H239.6L239.6,53.9z"/>
<path class="st2" d="M249.6,66.2l-2.2-6.8c-0.2-0.5-0.3-1.1-0.3-1.8H247c0,0.6-0.2,1.2-0.3,1.8l-2.2,6.9H249.6z M257,74.2h-4.9
	l-1.4-4.5h-7.2l-1.4,4.5h-4.9l7.3-20.3h5.4L257,74.2L257,74.2z"/>
<path class="st1" d="M31.6,76.2c4.1,0.2,8.3-0.5,9.6-1.3c-0.1-0.1-0.2-0.2-0.4-0.3C39.4,73.6,35.2,74.5,31.6,76.2 M29.7,85.1
	c4.6,1.3,10.3,0.2,12.2-0.8c-0.2-0.1-0.4-0.2-0.7-0.2C37.4,83,32.6,83.7,29.7,85.1L29.7,85.1z M30.5,95.5c-0.3,0-0.6-0.1-0.9-0.2
	c-6.2-3.7-6.4-7.1-5.5-9.2c0,0,0-0.1,0.1-0.1c-2.5-2-2.9-4.7-1.1-7.3c0.2-0.3,0.4-0.5,0.6-0.8c-1.9-1-2.5-2.4-2.5-3.5
	c-0.2-6.2,9.2-7.4,15.5-8.2c1.6-0.2,3.2-0.4,3.9-0.6c0.6-0.2,0.8-0.4,0.6-3.3c-0.1-1.9-0.3-4.6,0.4-7.7c0.8-3.9,3.1-6.4,5.5-9.1
	c3.1-3.5,6.4-7.1,7-14.4c0.6-7.8-1.4-14.3-5.8-18.6c-4.4-4.3-11-6.3-18.6-5.5C14.1,8.4,7.9,18.8,7.3,27.2
	c-0.9,12.6,5.6,17.5,10.4,21l0.6,0.4c5.9,4.5,8.8,11.6,9.3,15.3c0.1,0.9-0.5,1.7-1.4,1.8c-0.9,0.1-1.7-0.5-1.8-1.4
	c-0.4-3.1-3-9.3-8-13.2l-0.6-0.4C11,47.3,3.1,41.3,4.1,27c0.7-9.7,7.7-21.6,25.5-23.3c8.6-0.9,16.1,1.4,21.1,6.4
	c5.1,5,7.4,12.4,6.7,21.2c-0.7,8.4-4.5,12.6-7.8,16.3c-2.2,2.5-4.1,4.6-4.8,7.6c-0.6,2.7-0.5,5-0.4,6.8c0.2,2.8,0.3,5.6-2.9,6.6
	c-1,0.3-2.5,0.5-4.4,0.7c-4.5,0.6-12.8,1.6-12.7,4.9c0,0.2,0.5,0.7,1.8,1.2c0.1,0,0.1,0,0.2,0.1c4.9-3.4,12.8-5.7,16.1-3.5
	c2.4,1.6,2.2,3.2,1.9,4c-1.4,3.7-11.8,4-16.7,3.1c-0.2,0-0.4-0.1-0.6-0.1c-0.6,0.5-1,1-1.4,1.5c-0.7,1-0.9,2,0.5,3.1
	c3.7-2.9,10.9-3.9,15.8-2.5c0.8,0.2,3.3,0.9,3.6,2.9c0.1,0.8-0.1,2-1.9,3.1c-3,1.8-11,3.1-16.7,0.6c-0.4,1.9,2.8,4.1,4.3,4.9
	c0.8,0.5,1,1.4,0.6,2.2C31.6,95.2,31,95.4,30.5,95.5L30.5,95.5z"/>
<path class="st3" d="M74.3,88.3l-1.4-3.8c0-0.1-0.1-0.3-0.1-0.6h0c0,0.3-0.1,0.5-0.1,0.6l-1.4,3.8H74.3L74.3,88.3z M76.8,91.8h-1.2
	l-0.9-2.5h-3.8L70,91.8h-1.2l3.4-9h1.1L76.8,91.8z"/>
<path class="st3" d="M77.6,91.5v-1.1c0.6,0.4,1.2,0.6,1.8,0.6c0.9,0,1.4-0.3,1.4-0.9c0-0.2,0-0.3-0.1-0.4c-0.1-0.1-0.2-0.2-0.3-0.3
	c-0.1-0.1-0.3-0.2-0.5-0.2c-0.2-0.1-0.4-0.1-0.6-0.2c-0.3-0.1-0.5-0.2-0.7-0.3c-0.2-0.1-0.4-0.2-0.5-0.4c-0.1-0.1-0.3-0.3-0.3-0.5
	c-0.1-0.2-0.1-0.4-0.1-0.6c0-0.3,0.1-0.6,0.2-0.8c0.1-0.2,0.3-0.4,0.5-0.6c0.2-0.2,0.5-0.3,0.8-0.4c0.3-0.1,0.6-0.1,0.9-0.1
	c0.6,0,1.1,0.1,1.5,0.3v1c-0.5-0.3-1-0.5-1.6-0.5c-0.2,0-0.4,0-0.5,0.1c-0.2,0-0.3,0.1-0.4,0.2c-0.1,0.1-0.2,0.2-0.3,0.3
	c-0.1,0.1-0.1,0.2-0.1,0.4c0,0.2,0,0.3,0.1,0.4c0.1,0.1,0.1,0.2,0.3,0.3c0.1,0.1,0.3,0.2,0.4,0.2c0.2,0.1,0.4,0.1,0.6,0.2
	c0.3,0.1,0.5,0.2,0.8,0.3c0.2,0.1,0.4,0.2,0.6,0.4c0.2,0.1,0.3,0.3,0.4,0.5c0.1,0.2,0.1,0.4,0.1,0.7c0,0.3-0.1,0.6-0.2,0.8
	c-0.1,0.2-0.3,0.4-0.6,0.6c-0.2,0.2-0.5,0.3-0.8,0.4c-0.3,0.1-0.6,0.1-1,0.1C78.6,91.9,78.1,91.8,77.6,91.5"/>
<path class="st3" d="M86.2,86c-0.7,0-1.2,0.2-1.6,0.7c-0.4,0.4-0.6,1.1-0.6,1.9c0,0.8,0.2,1.4,0.6,1.8c0.4,0.4,0.9,0.7,1.6,0.7
	c0.6,0,1.2-0.2,1.5-0.6c0.4-0.4,0.5-1,0.5-1.8c0-0.8-0.2-1.4-0.5-1.9C87.3,86.3,86.8,86,86.2,86z M86.1,91.9c-0.9,0-1.7-0.3-2.3-0.9
	c-0.6-0.6-0.8-1.4-0.8-2.4c0-1.1,0.3-1.9,0.9-2.5c0.6-0.6,1.4-0.9,2.4-0.9c1,0,1.7,0.3,2.2,0.9c0.5,0.6,0.8,1.4,0.8,2.5
	c0,1.1-0.3,1.9-0.9,2.5C87.8,91.6,87.1,91.9,86.1,91.9L86.1,91.9z"/>
<path class="st3" d="M95.3,91.5c-0.5,0.3-1.1,0.4-1.7,0.4c-0.9,0-1.7-0.3-2.2-0.9c-0.6-0.6-0.8-1.4-0.8-2.3c0-1.1,0.3-1.9,0.9-2.6
	s1.4-1,2.4-1c0.6,0,1.1,0.1,1.5,0.3v1.1c-0.5-0.3-1-0.5-1.5-0.5c-0.7,0-1.2,0.2-1.6,0.7c-0.4,0.5-0.6,1.1-0.6,1.9
	c0,0.8,0.2,1.4,0.6,1.8c0.4,0.4,0.9,0.7,1.6,0.7c0.6,0,1.1-0.2,1.6-0.6V91.5z"/>
<path class="st3" d="M97.9,91.8h-1v-6.4h1V91.8z M97.4,83.7c-0.2,0-0.3-0.1-0.5-0.2c-0.1-0.1-0.2-0.3-0.2-0.5c0-0.2,0.1-0.4,0.2-0.5
	c0.1-0.1,0.3-0.2,0.5-0.2c0.2,0,0.3,0.1,0.5,0.2S98,82.8,98,83c0,0.2-0.1,0.3-0.2,0.5C97.7,83.6,97.5,83.7,97.4,83.7z"/>
<path class="st3" d="M103.5,88.5l-1.5,0.2c-0.5,0.1-0.8,0.2-1.1,0.4c-0.2,0.2-0.4,0.5-0.4,0.9c0,0.3,0.1,0.6,0.3,0.8
	c0.2,0.2,0.5,0.3,0.9,0.3c0.5,0,0.9-0.2,1.3-0.5c0.3-0.4,0.5-0.8,0.5-1.4V88.5z M104.5,91.8h-1v-1h0c-0.4,0.8-1.1,1.2-2,1.2
	c-0.6,0-1.1-0.2-1.5-0.5c-0.4-0.3-0.5-0.8-0.5-1.4c0-1.2,0.7-1.9,2.1-2.1l1.9-0.3c0-1.1-0.4-1.6-1.3-1.6c-0.8,0-1.5,0.3-2.1,0.8
	v-1.1c0.6-0.4,1.4-0.6,2.2-0.6c1.5,0,2.3,0.8,2.3,2.4V91.8L104.5,91.8z"/>
<path class="st3" d="M110.8,91.5c-0.5,0.3-1.1,0.4-1.7,0.4c-0.9,0-1.7-0.3-2.2-0.9c-0.6-0.6-0.8-1.4-0.8-2.3c0-1.1,0.3-1.9,0.9-2.6
	c0.6-0.6,1.4-1,2.4-1c0.6,0,1.1,0.1,1.5,0.3v1.1c-0.5-0.3-1-0.5-1.5-0.5c-0.7,0-1.2,0.2-1.6,0.7c-0.4,0.5-0.6,1.1-0.6,1.9
	c0,0.8,0.2,1.4,0.6,1.8c0.4,0.4,0.9,0.7,1.6,0.7c0.6,0,1.1-0.2,1.6-0.6V91.5z"/>
<path class="st3" d="M113.4,91.8h-1v-6.4h1V91.8z M112.9,83.7c-0.2,0-0.3-0.1-0.5-0.2c-0.1-0.1-0.2-0.3-0.2-0.5
	c0-0.2,0.1-0.4,0.2-0.5c0.1-0.1,0.3-0.2,0.5-0.2c0.2,0,0.3,0.1,0.5,0.2c0.1,0.1,0.2,0.3,0.2,0.5c0,0.2-0.1,0.3-0.2,0.5
	C113.2,83.6,113.1,83.7,112.9,83.7z"/>
<path class="st3" d="M119.7,82l-1.6,2.1h-0.8l1.4-2.1H119.7z M118.2,86.1c-0.7,0-1.2,0.2-1.6,0.7c-0.4,0.4-0.6,1.1-0.6,1.9
	c0,0.8,0.2,1.4,0.6,1.8c0.4,0.4,0.9,0.7,1.6,0.7c0.6,0,1.2-0.2,1.5-0.6c0.4-0.4,0.5-1,0.5-1.8s-0.2-1.4-0.5-1.9
	C119.4,86.3,118.9,86.1,118.2,86.1z M118.1,91.9c-0.9,0-1.7-0.3-2.3-0.9c-0.6-0.6-0.8-1.4-0.8-2.4c0-1.1,0.3-1.9,0.9-2.5
	c0.6-0.6,1.4-0.9,2.4-0.9c1,0,1.7,0.3,2.2,0.9c0.5,0.6,0.8,1.4,0.8,2.5c0,1.1-0.3,1.9-0.9,2.5C119.9,91.6,119.1,91.9,118.1,91.9
	L118.1,91.9z"/>
<path class="st3" d="M128.3,91.8h-1v-3.7c0-1.4-0.5-2.1-1.5-2.1c-0.5,0-0.9,0.2-1.3,0.6c-0.3,0.4-0.5,0.9-0.5,1.5v3.7h-1v-6.4h1v1.1
	h0c0.5-0.8,1.2-1.2,2.1-1.2c0.7,0,1.2,0.2,1.6,0.7c0.4,0.5,0.6,1.1,0.6,2V91.8z"/>
<path class="st3" d="M140,91.4c-0.7,0.4-1.5,0.5-2.5,0.5c-1.3,0-2.3-0.4-3.1-1.2c-0.8-0.8-1.2-1.9-1.2-3.3c0-1.4,0.4-2.6,1.3-3.5
	c0.9-0.9,2-1.3,3.3-1.3c0.9,0,1.6,0.1,2.1,0.4v1.1c-0.6-0.4-1.4-0.5-2.1-0.5c-1,0-1.9,0.3-2.5,1c-0.6,0.7-1,1.6-1,2.8
	c0,1.2,0.3,2,0.9,2.6c0.6,0.7,1.4,1,2.4,1c0.9,0,1.7-0.2,2.3-0.6L140,91.4L140,91.4z"/>
<path class="st3" d="M142.7,91.8h-1v-6.4h1V91.8z M142.2,83.7c-0.2,0-0.3-0.1-0.5-0.2c-0.1-0.1-0.2-0.3-0.2-0.5
	c0-0.2,0.1-0.4,0.2-0.5c0.1-0.1,0.3-0.2,0.5-0.2c0.2,0,0.3,0.1,0.5,0.2c0.1,0.1,0.2,0.3,0.2,0.5c0,0.2-0.1,0.3-0.2,0.5
	C142.5,83.6,142.4,83.7,142.2,83.7z"/>
<path class="st3" d="M149.8,85.3l-2.6,6.4h-1l-2.4-6.4h1.1l1.6,4.7c0.1,0.3,0.2,0.6,0.2,0.9h0c0-0.3,0.1-0.6,0.2-0.9l1.7-4.7
	L149.8,85.3L149.8,85.3z"/>
<path class="st3" d="M151.9,91.8h-1v-6.4h1V91.8z M151.4,83.7c-0.2,0-0.3-0.1-0.5-0.2c-0.1-0.1-0.2-0.3-0.2-0.5
	c0-0.2,0.1-0.4,0.2-0.5c0.1-0.1,0.3-0.2,0.5-0.2c0.2,0,0.3,0.1,0.5,0.2c0.1,0.1,0.2,0.3,0.2,0.5c0,0.2-0.1,0.3-0.2,0.5
	C151.8,83.6,151.6,83.7,151.4,83.7z"/>
<path class="st3" d="M155,82.2h-1v9.5h1V82.2z"/>
<path class="st3" d="M168,91.8h-1.3l-4.6-7.2c-0.1-0.2-0.2-0.4-0.3-0.6h0c0,0.2,0.1,0.6,0.1,1.2v6.5h-1.1v-9h1.4l4.5,7.1
	c0.2,0.3,0.3,0.5,0.4,0.6h0c0-0.3-0.1-0.7-0.1-1.3v-6.4h1.1L168,91.8L168,91.8z"/>
<path class="st3" d="M171.6,83.4c-0.3,0-0.5,0.1-0.7,0.3c-0.2,0.2-0.3,0.4-0.3,0.7s0.1,0.5,0.3,0.7c0.2,0.2,0.4,0.3,0.7,0.3
	c0.3,0,0.5-0.1,0.7-0.3c0.2-0.2,0.3-0.4,0.3-0.7c0-0.3-0.1-0.5-0.3-0.7C172.1,83.5,171.8,83.4,171.6,83.4 M171.6,86.1
	c-0.5,0-0.9-0.2-1.2-0.5c-0.3-0.3-0.5-0.8-0.5-1.2s0.2-0.9,0.5-1.2c0.3-0.3,0.7-0.5,1.2-0.5c0.5,0,0.9,0.2,1.2,0.5
	c0.3,0.3,0.5,0.7,0.5,1.2s-0.2,0.9-0.5,1.2C172.4,86,172,86.1,171.6,86.1L171.6,86.1z"/>
<path class="st3" d="M183.5,91.8h-5.4v-0.9l2.6-2.6c0.7-0.7,1.1-1.2,1.4-1.7c0.3-0.4,0.4-0.9,0.4-1.4c0-0.5-0.1-0.9-0.4-1.2
	c-0.3-0.3-0.7-0.4-1.3-0.4c-0.8,0-1.6,0.3-2.3,1v-1.1c0.7-0.6,1.5-0.8,2.4-0.8c0.8,0,1.4,0.2,1.9,0.7c0.5,0.4,0.7,1,0.7,1.8
	c0,0.6-0.2,1.1-0.5,1.7c-0.3,0.6-0.9,1.2-1.7,2.1l-2.1,2.1v0h4.2L183.5,91.8L183.5,91.8z"/>
<path class="st3" d="M190.4,91.8H185v-0.9l2.6-2.6c0.7-0.7,1.1-1.2,1.4-1.7c0.3-0.4,0.4-0.9,0.4-1.4c0-0.5-0.1-0.9-0.4-1.2
	c-0.3-0.3-0.7-0.4-1.3-0.4c-0.8,0-1.6,0.3-2.3,1v-1.1c0.7-0.6,1.5-0.8,2.4-0.8c0.8,0,1.4,0.2,1.9,0.7c0.5,0.4,0.7,1,0.7,1.8
	c0,0.6-0.2,1.1-0.5,1.7c-0.3,0.6-0.9,1.2-1.7,2.1l-2.1,2.1v0h4.2L190.4,91.8L190.4,91.8z"/>
<path class="st3" d="M192.1,91.4v-1.1c0.6,0.5,1.3,0.7,2.1,0.7c0.6,0,1.1-0.2,1.5-0.5c0.4-0.3,0.6-0.7,0.6-1.3
	c0-1.2-0.8-1.8-2.5-1.8H193v-0.9h0.7c1.5,0,2.2-0.6,2.2-1.7c0-1-0.6-1.5-1.7-1.5c-0.6,0-1.2,0.2-1.8,0.6v-1c0.6-0.3,1.3-0.5,2-0.5
	c0.8,0,1.4,0.2,1.8,0.6c0.5,0.4,0.7,0.9,0.7,1.5c0,1.2-0.6,2-1.8,2.3v0c0.6,0.1,1.2,0.3,1.5,0.7c0.4,0.4,0.6,0.9,0.6,1.5
	c0,0.8-0.3,1.5-0.9,2c-0.6,0.5-1.3,0.7-2.3,0.7C193.3,91.9,192.6,91.8,192.1,91.4"/>
<path class="st3" d="M201.6,87.5c-1.1,0.5-1.7,1.1-1.7,2c0,0.4,0.2,0.8,0.5,1.1s0.8,0.4,1.3,0.4c0.5,0,0.9-0.1,1.3-0.4
	c0.3-0.3,0.5-0.6,0.5-1.1C203.4,88.7,202.8,88,201.6,87.5 M203.1,84.8c0-0.4-0.1-0.7-0.4-1c-0.3-0.2-0.6-0.4-1.1-0.4
	c-0.4,0-0.8,0.1-1.1,0.4c-0.3,0.2-0.4,0.6-0.4,1c0,0.8,0.5,1.4,1.5,1.8C202.6,86.2,203.1,85.6,203.1,84.8L203.1,84.8z M200.7,87
	L200.7,87c-1.1-0.5-1.6-1.3-1.6-2.2c0-0.6,0.2-1.2,0.7-1.6c0.5-0.4,1.1-0.6,1.9-0.6c0.7,0,1.3,0.2,1.7,0.6c0.5,0.4,0.7,0.9,0.7,1.5
	c0,1-0.6,1.8-1.7,2.3v0c1.3,0.5,2,1.3,2,2.4c0,0.7-0.3,1.3-0.8,1.8c-0.5,0.4-1.3,0.7-2.2,0.7c-0.8,0-1.4-0.2-1.9-0.7
	c-0.5-0.4-0.7-1-0.7-1.7C198.8,88.4,199.4,87.6,200.7,87L200.7,87z"/>
<path class="st3" d="M210.2,82.8l-4.3,10.5h-1l4.3-10.5H210.2z"/>
<path class="st3" d="M216.1,91.8h-5.4v-0.9l2.6-2.6c0.7-0.7,1.1-1.2,1.4-1.7c0.3-0.4,0.4-0.9,0.4-1.4c0-0.5-0.1-0.9-0.4-1.2
	c-0.3-0.3-0.7-0.4-1.3-0.4c-0.8,0-1.6,0.3-2.3,1v-1.1c0.7-0.6,1.5-0.8,2.4-0.8c0.8,0,1.4,0.2,1.9,0.7c0.5,0.4,0.7,1,0.7,1.8
	c0,0.6-0.2,1.1-0.5,1.7c-0.3,0.6-0.9,1.2-1.7,2.1l-2.1,2.1v0h4.2L216.1,91.8L216.1,91.8z"/>
<path class="st3" d="M220.5,83.5c-1.3,0-1.9,1.3-1.9,3.9c0,2.4,0.6,3.7,1.9,3.7c1.3,0,1.9-1.2,1.9-3.7
	C222.3,84.8,221.7,83.5,220.5,83.5z M220.3,91.9c-0.9,0-1.6-0.4-2.1-1.1c-0.5-0.8-0.7-1.9-0.7-3.3c0-1.6,0.3-2.8,0.8-3.6
	c0.5-0.8,1.3-1.2,2.2-1.2c1.9,0,2.8,1.5,2.8,4.6c0,1.5-0.3,2.7-0.8,3.5C222,91.5,221.3,91.9,220.3,91.9L220.3,91.9z"/>
<path class="st3" d="M229.9,91.8h-5.4v-0.9l2.6-2.6c0.7-0.7,1.1-1.2,1.4-1.7c0.3-0.4,0.4-0.9,0.4-1.4c0-0.5-0.1-0.9-0.4-1.2
	c-0.3-0.3-0.7-0.4-1.3-0.4c-0.8,0-1.6,0.3-2.3,1v-1.1c0.7-0.6,1.5-0.8,2.4-0.8c0.8,0,1.4,0.2,1.9,0.7c0.5,0.4,0.7,1,0.7,1.8
	c0,0.6-0.2,1.1-0.5,1.7c-0.3,0.6-0.9,1.2-1.7,2.1l-2.1,2.1v0h4.2L229.9,91.8L229.9,91.8z"/>
<path class="st3" d="M234.3,83.5c-1.3,0-1.9,1.3-1.9,3.9c0,2.4,0.6,3.7,1.9,3.7c1.3,0,1.9-1.2,1.9-3.7
	C236.1,84.8,235.5,83.5,234.3,83.5z M234.1,91.9c-0.9,0-1.6-0.4-2.1-1.1c-0.5-0.8-0.7-1.9-0.7-3.3c0-1.6,0.3-2.8,0.8-3.6
	c0.5-0.8,1.3-1.2,2.2-1.2c1.9,0,2.8,1.5,2.8,4.6c0,1.5-0.3,2.7-0.8,3.5C235.8,91.5,235.1,91.9,234.1,91.9L234.1,91.9z"/>
<path class="st4" d="M74.3,88.3l-1.4-3.8c0-0.1-0.1-0.3-0.1-0.6h0c0,0.3-0.1,0.5-0.1,0.6l-1.4,3.8H74.3L74.3,88.3z M76.8,91.8h-1.2
	l-0.9-2.5h-3.8L70,91.8h-1.2l3.4-9h1.1L76.8,91.8L76.8,91.8z"/>
<path class="st4" d="M77.6,91.5v-1.1c0.6,0.4,1.2,0.6,1.8,0.6c0.9,0,1.4-0.3,1.4-0.9c0-0.2,0-0.3-0.1-0.4c-0.1-0.1-0.2-0.2-0.3-0.3
	c-0.1-0.1-0.3-0.2-0.5-0.2c-0.2-0.1-0.4-0.1-0.6-0.2c-0.3-0.1-0.5-0.2-0.7-0.3c-0.2-0.1-0.4-0.2-0.5-0.4c-0.1-0.1-0.3-0.3-0.3-0.5
	c-0.1-0.2-0.1-0.4-0.1-0.6c0-0.3,0.1-0.6,0.2-0.8c0.1-0.2,0.3-0.4,0.5-0.6c0.2-0.2,0.5-0.3,0.8-0.4c0.3-0.1,0.6-0.1,0.9-0.1
	c0.6,0,1.1,0.1,1.5,0.3v1c-0.5-0.3-1-0.5-1.6-0.5c-0.2,0-0.4,0-0.5,0.1c-0.2,0-0.3,0.1-0.4,0.2c-0.1,0.1-0.2,0.2-0.3,0.3
	c-0.1,0.1-0.1,0.2-0.1,0.4c0,0.2,0,0.3,0.1,0.4c0.1,0.1,0.1,0.2,0.3,0.3c0.1,0.1,0.3,0.2,0.4,0.2c0.2,0.1,0.4,0.1,0.6,0.2
	c0.3,0.1,0.5,0.2,0.8,0.3c0.2,0.1,0.4,0.2,0.6,0.4c0.2,0.1,0.3,0.3,0.4,0.5c0.1,0.2,0.1,0.4,0.1,0.7c0,0.3-0.1,0.6-0.2,0.8
	c-0.1,0.2-0.3,0.4-0.6,0.6c-0.2,0.2-0.5,0.3-0.8,0.4c-0.3,0.1-0.6,0.1-1,0.1C78.6,91.9,78.1,91.8,77.6,91.5L77.6,91.5z"/>
<path class="st4" d="M86.2,86c-0.7,0-1.2,0.2-1.6,0.7c-0.4,0.4-0.6,1.1-0.6,1.9c0,0.8,0.2,1.4,0.6,1.8c0.4,0.4,0.9,0.7,1.6,0.7
	c0.6,0,1.2-0.2,1.5-0.6c0.4-0.4,0.5-1,0.5-1.8c0-0.8-0.2-1.4-0.5-1.9C87.3,86.3,86.8,86,86.2,86L86.2,86z M86.1,91.9
	c-0.9,0-1.7-0.3-2.3-0.9c-0.6-0.6-0.8-1.4-0.8-2.4c0-1.1,0.3-1.9,0.9-2.5c0.6-0.6,1.4-0.9,2.4-0.9c1,0,1.7,0.3,2.2,0.9
	c0.5,0.6,0.8,1.4,0.8,2.5c0,1.1-0.3,1.9-0.9,2.5C87.8,91.6,87.1,91.9,86.1,91.9L86.1,91.9z"/>
<path class="st4" d="M95.3,91.5c-0.5,0.3-1.1,0.4-1.7,0.4c-0.9,0-1.7-0.3-2.2-0.9c-0.6-0.6-0.8-1.4-0.8-2.3c0-1.1,0.3-1.9,0.9-2.6
	s1.4-1,2.4-1c0.6,0,1.1,0.1,1.5,0.3v1.1c-0.5-0.3-1-0.5-1.5-0.5c-0.7,0-1.2,0.2-1.6,0.7c-0.4,0.5-0.6,1.1-0.6,1.9
	c0,0.8,0.2,1.4,0.6,1.8c0.4,0.4,0.9,0.7,1.6,0.7c0.6,0,1.1-0.2,1.6-0.6V91.5L95.3,91.5z"/>
<path class="st4" d="M97.9,91.8h-1v-6.4h1V91.8z M97.4,83.7c-0.2,0-0.3-0.1-0.5-0.2c-0.1-0.1-0.2-0.3-0.2-0.5c0-0.2,0.1-0.4,0.2-0.5
	c0.1-0.1,0.3-0.2,0.5-0.2c0.2,0,0.3,0.1,0.5,0.2S98,82.8,98,83c0,0.2-0.1,0.3-0.2,0.5C97.7,83.6,97.5,83.7,97.4,83.7L97.4,83.7z"/>
<path class="st4" d="M103.5,88.5l-1.5,0.2c-0.5,0.1-0.8,0.2-1.1,0.4c-0.2,0.2-0.4,0.5-0.4,0.9c0,0.3,0.1,0.6,0.3,0.8
	c0.2,0.2,0.5,0.3,0.9,0.3c0.5,0,0.9-0.2,1.3-0.5c0.3-0.4,0.5-0.8,0.5-1.4V88.5L103.5,88.5z M104.5,91.8h-1v-1h0
	c-0.4,0.8-1.1,1.2-2,1.2c-0.6,0-1.1-0.2-1.5-0.5c-0.4-0.3-0.5-0.8-0.5-1.4c0-1.2,0.7-1.9,2.1-2.1l1.9-0.3c0-1.1-0.4-1.6-1.3-1.6
	c-0.8,0-1.5,0.3-2.1,0.8v-1.1c0.6-0.4,1.4-0.6,2.2-0.6c1.5,0,2.3,0.8,2.3,2.4V91.8L104.5,91.8z"/>
<path class="st4" d="M110.8,91.5c-0.5,0.3-1.1,0.4-1.7,0.4c-0.9,0-1.7-0.3-2.2-0.9c-0.6-0.6-0.8-1.4-0.8-2.3c0-1.1,0.3-1.9,0.9-2.6
	c0.6-0.6,1.4-1,2.4-1c0.6,0,1.1,0.1,1.5,0.3v1.1c-0.5-0.3-1-0.5-1.5-0.5c-0.7,0-1.2,0.2-1.6,0.7c-0.4,0.5-0.6,1.1-0.6,1.9
	c0,0.8,0.2,1.4,0.6,1.8c0.4,0.4,0.9,0.7,1.6,0.7c0.6,0,1.1-0.2,1.6-0.6V91.5L110.8,91.5z"/>
<path class="st4" d="M113.4,91.8h-1v-6.4h1V91.8z M112.9,83.7c-0.2,0-0.3-0.1-0.5-0.2c-0.1-0.1-0.2-0.3-0.2-0.5
	c0-0.2,0.1-0.4,0.2-0.5c0.1-0.1,0.3-0.2,0.5-0.2c0.2,0,0.3,0.1,0.5,0.2c0.1,0.1,0.2,0.3,0.2,0.5c0,0.2-0.1,0.3-0.2,0.5
	C113.2,83.6,113.1,83.7,112.9,83.7L112.9,83.7z"/>
<path class="st4" d="M119.7,82l-1.6,2.1h-0.8l1.4-2.1H119.7L119.7,82z M118.2,86.1c-0.7,0-1.2,0.2-1.6,0.7c-0.4,0.4-0.6,1.1-0.6,1.9
	c0,0.8,0.2,1.4,0.6,1.8c0.4,0.4,0.9,0.7,1.6,0.7c0.6,0,1.2-0.2,1.5-0.6c0.4-0.4,0.5-1,0.5-1.8s-0.2-1.4-0.5-1.9
	C119.4,86.3,118.9,86.1,118.2,86.1L118.2,86.1z M118.1,91.9c-0.9,0-1.7-0.3-2.3-0.9c-0.6-0.6-0.8-1.4-0.8-2.4c0-1.1,0.3-1.9,0.9-2.5
	c0.6-0.6,1.4-0.9,2.4-0.9c1,0,1.7,0.3,2.2,0.9c0.5,0.6,0.8,1.4,0.8,2.5c0,1.1-0.3,1.9-0.9,2.5C119.9,91.6,119.1,91.9,118.1,91.9
	L118.1,91.9z"/>
<path class="st4" d="M128.3,91.8h-1v-3.7c0-1.4-0.5-2.1-1.5-2.1c-0.5,0-0.9,0.2-1.3,0.6c-0.3,0.4-0.5,0.9-0.5,1.5v3.7h-1v-6.4h1v1.1
	h0c0.5-0.8,1.2-1.2,2.1-1.2c0.7,0,1.2,0.2,1.6,0.7c0.4,0.5,0.6,1.1,0.6,2V91.8z"/>
<path class="st4" d="M140,91.4c-0.7,0.4-1.5,0.5-2.5,0.5c-1.3,0-2.3-0.4-3.1-1.2c-0.8-0.8-1.2-1.9-1.2-3.3c0-1.4,0.4-2.6,1.3-3.5
	c0.9-0.9,2-1.3,3.3-1.3c0.9,0,1.6,0.1,2.1,0.4v1.1c-0.6-0.4-1.4-0.5-2.1-0.5c-1,0-1.9,0.3-2.5,1c-0.6,0.7-1,1.6-1,2.8
	c0,1.2,0.3,2,0.9,2.6c0.6,0.7,1.4,1,2.4,1c0.9,0,1.7-0.2,2.3-0.6L140,91.4L140,91.4z"/>
<path class="st4" d="M142.7,91.8h-1v-6.4h1V91.8z M142.2,83.7c-0.2,0-0.3-0.1-0.5-0.2c-0.1-0.1-0.2-0.3-0.2-0.5
	c0-0.2,0.1-0.4,0.2-0.5c0.1-0.1,0.3-0.2,0.5-0.2c0.2,0,0.3,0.1,0.5,0.2c0.1,0.1,0.2,0.3,0.2,0.5c0,0.2-0.1,0.3-0.2,0.5
	C142.5,83.6,142.4,83.7,142.2,83.7L142.2,83.7z"/>
<path class="st4" d="M149.8,85.3l-2.6,6.4h-1l-2.4-6.4h1.1l1.6,4.7c0.1,0.3,0.2,0.6,0.2,0.9h0c0-0.3,0.1-0.6,0.2-0.9l1.7-4.7
	L149.8,85.3L149.8,85.3z"/>
<path class="st4" d="M151.9,91.8h-1v-6.4h1V91.8z M151.4,83.7c-0.2,0-0.3-0.1-0.5-0.2c-0.1-0.1-0.2-0.3-0.2-0.5
	c0-0.2,0.1-0.4,0.2-0.5c0.1-0.1,0.3-0.2,0.5-0.2c0.2,0,0.3,0.1,0.5,0.2c0.1,0.1,0.2,0.3,0.2,0.5c0,0.2-0.1,0.3-0.2,0.5
	C151.8,83.6,151.6,83.7,151.4,83.7L151.4,83.7z"/>
<path class="st4" d="M155,82.2h-1v9.5h1V82.2z"/>
<path class="st4" d="M168,91.8h-1.3l-4.6-7.2c-0.1-0.2-0.2-0.4-0.3-0.6h0c0,0.2,0.1,0.6,0.1,1.2v6.5h-1.1v-9h1.4l4.5,7.1
	c0.2,0.3,0.3,0.5,0.4,0.6h0c0-0.3-0.1-0.7-0.1-1.3v-6.4h1.1L168,91.8L168,91.8z"/>
<path class="st4" d="M171.6,83.4c-0.3,0-0.5,0.1-0.7,0.3c-0.2,0.2-0.3,0.4-0.3,0.7c0,0.3,0.1,0.5,0.3,0.7c0.2,0.2,0.4,0.3,0.7,0.3
	c0.3,0,0.5-0.1,0.7-0.3c0.2-0.2,0.3-0.4,0.3-0.7c0-0.3-0.1-0.5-0.3-0.7C172.1,83.5,171.8,83.4,171.6,83.4L171.6,83.4z M171.6,86.1
	c-0.5,0-0.9-0.2-1.2-0.5c-0.3-0.3-0.5-0.8-0.5-1.2c0-0.5,0.2-0.9,0.5-1.2c0.3-0.3,0.7-0.5,1.2-0.5c0.5,0,0.9,0.2,1.2,0.5
	c0.3,0.3,0.5,0.7,0.5,1.2c0,0.5-0.2,0.9-0.5,1.2C172.4,86,172,86.1,171.6,86.1L171.6,86.1z"/>
<path class="st4" d="M183.5,91.8h-5.4v-0.9l2.6-2.6c0.7-0.7,1.1-1.2,1.4-1.7c0.3-0.4,0.4-0.9,0.4-1.4c0-0.5-0.1-0.9-0.4-1.2
	c-0.3-0.3-0.7-0.4-1.3-0.4c-0.8,0-1.6,0.3-2.3,1v-1.1c0.7-0.6,1.5-0.8,2.4-0.8c0.8,0,1.4,0.2,1.9,0.7c0.5,0.4,0.7,1,0.7,1.8
	c0,0.6-0.2,1.1-0.5,1.7c-0.3,0.6-0.9,1.2-1.7,2.1l-2.1,2.1v0h4.2L183.5,91.8L183.5,91.8z"/>
<path class="st4" d="M190.4,91.8H185v-0.9l2.6-2.6c0.7-0.7,1.1-1.2,1.4-1.7c0.3-0.4,0.4-0.9,0.4-1.4c0-0.5-0.1-0.9-0.4-1.2
	c-0.3-0.3-0.7-0.4-1.3-0.4c-0.8,0-1.6,0.3-2.3,1v-1.1c0.7-0.6,1.5-0.8,2.4-0.8c0.8,0,1.4,0.2,1.9,0.7c0.5,0.4,0.7,1,0.7,1.8
	c0,0.6-0.2,1.1-0.5,1.7c-0.3,0.6-0.9,1.2-1.7,2.1l-2.1,2.1v0h4.2L190.4,91.8L190.4,91.8z"/>
<path class="st4" d="M192.1,91.4v-1.1c0.6,0.5,1.3,0.7,2.1,0.7c0.6,0,1.1-0.2,1.5-0.5c0.4-0.3,0.6-0.7,0.6-1.3
	c0-1.2-0.8-1.8-2.5-1.8H193v-0.9h0.7c1.5,0,2.2-0.6,2.2-1.7c0-1-0.6-1.5-1.7-1.5c-0.6,0-1.2,0.2-1.8,0.6v-1c0.6-0.3,1.3-0.5,2-0.5
	c0.8,0,1.4,0.2,1.8,0.6c0.5,0.4,0.7,0.9,0.7,1.5c0,1.2-0.6,2-1.8,2.3v0c0.6,0.1,1.2,0.3,1.5,0.7c0.4,0.4,0.6,0.9,0.6,1.5
	c0,0.8-0.3,1.5-0.9,2c-0.6,0.5-1.3,0.7-2.3,0.7C193.3,91.9,192.6,91.8,192.1,91.4L192.1,91.4z"/>
<path class="st4" d="M201.6,87.5c-1.1,0.5-1.7,1.1-1.7,2c0,0.4,0.2,0.8,0.5,1.1s0.8,0.4,1.3,0.4c0.5,0,0.9-0.1,1.3-0.4
	c0.3-0.3,0.5-0.6,0.5-1.1C203.4,88.7,202.8,88,201.6,87.5L201.6,87.5z M203.1,84.8c0-0.4-0.1-0.7-0.4-1c-0.3-0.2-0.6-0.4-1.1-0.4
	c-0.4,0-0.8,0.1-1.1,0.4c-0.3,0.2-0.4,0.6-0.4,1c0,0.8,0.5,1.4,1.5,1.8C202.6,86.2,203.1,85.6,203.1,84.8L203.1,84.8z M200.8,87
	L200.8,87c-1.1-0.5-1.6-1.3-1.6-2.2c0-0.6,0.2-1.2,0.7-1.6c0.5-0.4,1.1-0.6,1.9-0.6c0.7,0,1.3,0.2,1.7,0.6c0.5,0.4,0.7,0.9,0.7,1.5
	c0,1-0.6,1.8-1.7,2.3v0c1.3,0.5,2,1.3,2,2.4c0,0.7-0.3,1.3-0.8,1.8c-0.5,0.4-1.3,0.7-2.2,0.7c-0.8,0-1.4-0.2-1.9-0.7s-0.7-1-0.7-1.7
	C198.8,88.4,199.5,87.6,200.8,87L200.8,87z"/>
<path class="st4" d="M210.2,82.8l-4.3,10.5h-1l4.3-10.5H210.2z"/>
<path class="st4" d="M216.1,91.8h-5.4v-0.9l2.6-2.6c0.7-0.7,1.1-1.2,1.4-1.7c0.3-0.4,0.4-0.9,0.4-1.4c0-0.5-0.1-0.9-0.4-1.2
	c-0.3-0.3-0.7-0.4-1.3-0.4c-0.8,0-1.6,0.3-2.3,1v-1.1c0.7-0.6,1.5-0.8,2.4-0.8c0.8,0,1.4,0.2,1.9,0.7c0.5,0.4,0.7,1,0.7,1.8
	c0,0.6-0.2,1.1-0.5,1.7c-0.3,0.6-0.9,1.2-1.7,2.1l-2.1,2.1v0h4.2L216.1,91.8L216.1,91.8z"/>
<path class="st4" d="M220.5,83.5c-1.3,0-1.9,1.3-1.9,3.9c0,2.4,0.6,3.7,1.9,3.7c1.3,0,1.9-1.2,1.9-3.7
	C222.3,84.8,221.7,83.5,220.5,83.5L220.5,83.5z M220.3,91.9c-0.9,0-1.6-0.4-2.1-1.1c-0.5-0.8-0.7-1.9-0.7-3.3c0-1.6,0.3-2.8,0.8-3.6
	c0.5-0.8,1.3-1.2,2.2-1.2c1.9,0,2.8,1.5,2.8,4.6c0,1.5-0.3,2.7-0.8,3.5C222,91.5,221.3,91.9,220.3,91.9L220.3,91.9z"/>
<path class="st4" d="M229.9,91.8h-5.4v-0.9l2.6-2.6c0.7-0.7,1.1-1.2,1.4-1.7c0.3-0.4,0.4-0.9,0.4-1.4c0-0.5-0.1-0.9-0.4-1.2
	c-0.3-0.3-0.7-0.4-1.3-0.4c-0.8,0-1.6,0.3-2.3,1v-1.1c0.7-0.6,1.5-0.8,2.4-0.8c0.8,0,1.4,0.2,1.9,0.7c0.5,0.4,0.7,1,0.7,1.8
	c0,0.6-0.2,1.1-0.5,1.7c-0.3,0.6-0.9,1.2-1.7,2.1l-2.1,2.1v0h4.2L229.9,91.8L229.9,91.8z"/>
<path class="st4" d="M234.3,83.5c-1.3,0-1.9,1.3-1.9,3.9c0,2.4,0.6,3.7,1.9,3.7c1.3,0,1.9-1.2,1.9-3.7
	C236.1,84.8,235.5,83.5,234.3,83.5L234.3,83.5z M234.1,91.9c-0.9,0-1.6-0.4-2.1-1.1c-0.5-0.8-0.7-1.9-0.7-3.3c0-1.6,0.3-2.8,0.8-3.6
	c0.5-0.8,1.3-1.2,2.2-1.2c1.9,0,2.8,1.5,2.8,4.6c0,1.5-0.3,2.7-0.8,3.5C235.8,91.5,235.1,91.9,234.1,91.9L234.1,91.9z"/>
</svg>
