<?xml version="1.0" encoding="utf-8"?>
<!-- Generator: Adobe Illustrator 26.3.1, SVG Export Plug-In . SVG Version: 6.00 Build 0)  -->
<svg version="1.1" id="Capa_1" xmlns="http://www.w3.org/2000/svg" xmlns:xlink="http://www.w3.org/1999/xlink" x="0px" y="0px"
	 viewBox="0 0 1154 559" style="enable-background:new 0 0 1154 559;" xml:space="preserve">
<style type="text/css">
	.st0{fill:none;stroke:#FFFFFF;stroke-width:12;stroke-linecap:round;stroke-linejoin:round;stroke-miterlimit:3;}
	.st1{fill:#FFFFFF;}
</style>
<path class="st0" d="M383.5,291l-29.7,24v-96c0-3.3,2.7-6,6-6h96c3.3,0,6,2.7,6,6v66c0,3.3-2.7,6-6,6H383.5z"/>
<path class="st0" d="M389.8,291v30c0,3.3,2.7,6,6,6h72.3l29.7,24v-96c0-3.3-2.7-6-6-6h-30"/>
<line class="st0" x1="588.1" y1="261" x2="636.1" y2="261"/>
<line class="st0" x1="588.1" y1="285" x2="636.1" y2="285"/>
<path class="st0" d="M628.4,329.9l-11.1,18.5c-1.8,2.9-5.5,3.8-8.4,2c-0.8-0.5-1.5-1.2-2-2l-11.1-18.5c-1.1-1.8-3-2.9-5.1-2.9h-44.6
	c-3.3,0-6-2.7-6-6v-96c0-3.3,2.7-6,6-6h132c3.3,0,6,2.7,6,6v96c0,3.3-2.7,6-6,6h-44.6C631.4,327,629.5,328.1,628.4,329.9z"/>
<path class="st0" d="M755.4,329l-24.2,20.2c-2.6,2.1-6.3,1.8-8.4-0.8c-0.9-1.1-1.4-2.4-1.4-3.8V225.6c0-3.3,2.7-6,6-6h132
	c3.3,0,6,2.7,6,6v96c0,3.3-2.7,6-6,6H759.2C757.8,327.6,756.5,328.1,755.4,329z"/>
<circle class="st1" cx="793.3" cy="273.6" r="9"/>
<circle class="st1" cx="757.3" cy="273.6" r="9"/>
<circle class="st1" cx="829.3" cy="273.6" r="9"/>
</svg>
